<svg aria-hidden="true" focusable="false" data-prefix="twit" data-icon="twitter" role="img" xmlns="http://www.w3.org/2000/svg" viewBox="0 0 28 28">
<path d="M24.5 0.5H3.5C1.8425 0.5 0.5 1.8425 0.5 3.5V24.5C0.5 26.1575 1.8425 27.5 3.5 27.5H24.5C26.1575 27.5 27.5 26.1575 27.5 24.5V3.5C27.5 1.8425 26.1575 0.5 24.5 0.5ZM21.575 10.271C21.575 10.4 21.575 10.5275 21.575 10.7855C21.575 15.671 17.846 21.329 11.0315 21.329C8.975 21.329 7.046 20.6855 5.375 19.658C5.6315 19.658 6.0185 19.658 6.275 19.658C7.946 19.658 9.6185 19.0145 10.904 18.1145C9.233 18.1145 7.9475 16.958 7.433 15.5435C7.6895 15.5435 7.9475 15.6725 8.0765 15.6725C8.462 15.6725 8.72 15.6725 9.1055 15.5435C7.4345 15.158 6.149 13.7435 6.149 11.9435C6.6635 12.2 7.178 12.329 7.82 12.458C6.791 11.558 6.149 10.529 6.149 9.2435C6.149 8.6 6.278 7.958 6.6635 7.4435C8.4635 9.629 11.1635 11.1725 14.249 11.3C14.249 11.0435 14.12 10.7855 14.12 10.4C14.12 8.3435 15.791 6.671 17.849 6.671C18.878 6.671 19.9055 7.0565 20.549 7.8275C21.449 7.6985 22.22 7.313 22.8635 6.9275C22.607 7.8275 21.9635 8.471 21.1925 8.984C21.9635 8.855 22.607 8.7275 23.378 8.3405C22.8605 9.1145 22.2185 9.7565 21.575 10.271Z" fill="currentColor"/>
</svg>
