<svg width="151" height="152" viewBox="0 0 151 152" fill="none" xmlns="http://www.w3.org/2000/svg">
<path d="M18.5078 75.6765C18.5078 109.159 45.5247 136.301 78.8517 136.301C99.042 136.301 116.916 126.339 127.871 111.041C134.998 101.087 139.196 88.8743 139.196 75.6765C139.196 42.1945 102.075 11.4033 68.7476 11.4033C35.4206 11.4033 18.5078 42.1945 18.5078 75.6765Z" fill="#FCF0ED"/>
<path d="M46.7438 90.9452C46.7438 90.9452 44.4658 111.108 6.17041 103.216L7.86487 110.238C7.86487 110.238 42.5599 126.543 56.4181 98.8031C66.9088 77.8013 46.7438 90.9452 46.7438 90.9452L46.6475 91.481L46.7438 90.9452Z" fill="#D99379"/>
<path d="M69.6175 44.1914C69.6175 44.1914 84.086 37.5686 90.034 52.178C95.9821 66.7874 89.3595 66.4552 92.0203 66.8061C92.0203 66.8061 97.7033 69.062 97.7702 72.3788C97.8371 75.6955 94.8685 79.0391 97.2777 81.2655C99.6869 83.4919 100.062 86.4631 99.3175 88.4992C98.5733 90.5354 96.9083 93.6968 96.9083 93.6968L88.112 82.372C88.112 82.372 84.7472 79.2374 86.6531 75.7009C86.6531 75.7009 92.4566 70.4926 90.2295 68.8208C90.2295 68.8208 87.0788 72.719 82.4397 71.9769C77.8007 71.2348 63.4339 60.9602 63.4339 60.9602C63.4339 60.9602 56.7926 46.4687 69.6175 44.1914Z" fill="#261E0F"/>
<path d="M61.6027 64.5956C62.3014 67.114 64.732 66.179 64.732 66.179C66.4961 72.2258 72.2781 74.6371 72.2781 74.6371C71.5982 79.1005 67.0555 80.4401 67.0555 80.4401C73.6433 88.9196 87.7264 83.1193 87.7264 83.1193C80.456 78.4334 84.0912 64.1509 84.0912 64.1509C87.4988 64.1509 87.4988 61.4717 87.4988 61.4717C87.4988 58.1255 83.8636 58.3478 83.8636 58.3478C83.8636 58.3478 78.6384 59.465 76.8234 55.0016C75.0085 50.5381 71.3706 49.4209 71.3706 49.4209C71.3706 49.4209 66.6004 47.6366 63.8754 52.3224C63.8754 52.3224 62.5129 57.6807 63.423 61.027C63.4257 61.0243 60.9201 62.1388 61.6027 64.5956Z" fill="#D99379"/>
<path d="M69.5534 66.8276C69.5534 66.8276 68.6459 67.4974 67.9633 66.8276C67.2807 66.1578 68.1909 65.3514 68.1909 65.3514C68.1909 65.3514 68.4184 65.2656 68.4184 64.1484" stroke="#261E0F" stroke-miterlimit="10" stroke-linecap="round"/>
<path d="M91.7395 89.2412C91.7395 89.2412 99.912 87.5426 99.9682 106.273C100.019 123.832 132.567 106.476 132.567 106.476C132.567 106.476 136.583 103.224 142.252 105.989C147.922 108.753 148.631 109.989 144.825 109.297C141.018 108.606 139.591 108.74 144.121 111.885C148.65 115.031 149.207 115.534 149.207 115.534C149.207 115.534 151.279 117.49 149.474 117.696C149.474 117.696 151.71 119.698 150.725 120.124C150.725 120.124 151.68 122.993 148.829 121.345C145.978 119.698 141.602 117.287 141.602 117.287C141.273 117.061 140.922 116.873 140.552 116.724C139.037 116.019 134.647 116.853 123.833 121.303C102.723 130.047 93.9372 122.988 91.255 117.284C88.9957 112.494 86.9452 96.5446 87.593 92.9036C88.2408 89.2626 91.7395 89.2412 91.7395 89.2412Z" fill="#D99379"/>
<path d="M68.3625 79.8347C68.3625 79.8347 61.6248 80.3464 60.6129 80.4081C59.6011 80.4697 55.8588 80.2955 53.1177 83.1729C50.3765 86.0503 48.2671 88.7991 48.2671 88.7991L46.7065 90.9934C46.7065 90.9934 43.521 95.6176 39.5405 100.877L46.0694 110.918C47.5042 110.281 50.2748 107.733 50.5157 107.548C51.3188 106.934 51.0083 106.297 51.3188 110.599C52.1219 121.407 48.1333 134.034 48.1333 134.034C54.9808 140.41 63.6217 142.744 69.634 143.438C77.9163 144.394 87.4727 140.729 87.4727 140.729L87.7859 122.714L88.423 112.992C88.423 112.992 88.2624 102.31 92.8827 101.991C97.503 101.672 97.6582 103.119 100.209 104.542C100.209 104.542 105.716 87.5801 86.9882 82.546C86.9962 82.546 72.5277 89.6216 68.3625 79.8347Z" fill="#92CCBA"/>
<path d="M42.5869 101.407C43.0408 101.407 43.4087 101.039 43.4087 100.585C43.4087 100.13 43.0408 99.7622 42.5869 99.7622C42.1331 99.7622 41.7651 100.13 41.7651 100.585C41.7651 101.039 42.1331 101.407 42.5869 101.407Z" stroke="white" stroke-miterlimit="10"/>
<path d="M44.7095 104.486C45.1634 104.486 45.5313 104.117 45.5313 103.663C45.5313 103.209 45.1634 102.841 44.7095 102.841C44.2556 102.841 43.8877 103.209 43.8877 103.663C43.8877 104.117 44.2556 104.486 44.7095 104.486Z" stroke="white" stroke-miterlimit="10"/>
<path d="M46.6743 107.561C47.1282 107.561 47.4962 107.193 47.4962 106.739C47.4962 106.284 47.1282 105.916 46.6743 105.916C46.2205 105.916 45.8525 106.284 45.8525 106.739C45.8525 107.193 46.2205 107.561 46.6743 107.561Z" stroke="white" stroke-miterlimit="10"/>
<path d="M100.214 104.394C100.214 104.394 86.7709 100.944 87.6328 111.398C88.4948 121.852 68.188 99.0736 68.188 99.0736L94.0359 92.5767L100.535 98.6342L100.214 104.384" fill="#92CCBA"/>
<path d="M32.3925 45.578C31.4058 43.9645 30.0432 42.6143 28.4213 41.6429C26.7995 40.6715 24.9667 40.1078 23.0796 40H15.9431L11.039 40.2331C11.039 40.2331 5.35871 40.2331 6.04131 44.9216C6.72392 49.6101 8.08645 50.947 8.08645 50.947C8.08645 50.947 10.1236 55.4105 14.6742 55.4105C16.2643 55.4105 17.8223 55.4426 19.2249 55.4105C21.5056 55.3569 23.3152 55.1854 23.3152 55.1854C23.3152 55.1854 30.8105 54.2933 32.6281 56.525C34.4457 58.7567 34.8981 59.2042 34.8981 59.2042C34.8981 59.2042 36.9432 61.4359 36.4881 58.5344C36.0331 55.6328 33.755 47.365 32.3925 45.578Z" fill="#5C64E0" stroke="#B4B8FF" stroke-width="0.75" stroke-miterlimit="10"/>
<path d="M12.1816 49.1493C12.9737 49.2526 13.7789 49.1647 14.53 48.893C15.2812 48.6213 15.9564 48.1736 16.4994 47.5874C16.4994 47.5874 17.862 45.5673 16.4994 44.9082C16.4994 44.9082 15.1342 44.9082 16.2719 47.5874C17.4096 50.2665 21.2696 49.8191 22.4046 48.4795C22.7542 48.2531 23.0549 47.9589 23.2889 47.6142C23.5229 47.2696 23.6855 46.8815 23.7672 46.4728C23.7672 46.4728 23.9947 45.578 23.3148 45.1333C22.6349 44.6885 22.1771 46.2478 22.4046 46.4728C22.6322 46.6979 22.4046 48.4795 25.1297 48.7046C27.8548 48.9296 27.6299 47.365 27.6299 47.8097" stroke="white" stroke-width="0.75" stroke-miterlimit="10"/>
<path d="M3.99926 102.029L3.9377 101.924C3.50137 101.195 0.910148 96.8338 0.768273 96.6623C0.626399 96.4909 -1.55526 93.734 2.13883 93.9832C5.83293 94.2324 8.98361 94.5914 8.98361 94.5914C8.98361 94.5914 11.4918 94.3449 13.5798 97.7796C15.6678 101.214 21.4257 109.678 21.4257 109.678C21.4257 109.678 24.3703 113.386 18.1653 113.386L14.0831 112.917C14.0831 112.917 11.0876 113.281 8.26353 108.523C5.98283 104.678 4.59621 102.806 4.14649 102.23C4.04209 102.093 3.98856 102.029 3.98856 102.029" fill="#293C7C"/>
<path d="M10.9834 103.8C11.2324 103.604 12.1398 101.686 10.1322 101.233C8.12451 100.78 4.98185 101.254 3.6675 102.256C2.35316 103.258 1.7 104.981 3.60594 106.323C3.60594 106.323 2.59675 111.146 6.43272 111.591C10.2687 112.035 14.359 110.251 14.6106 110.055C14.6106 110.055 17.1964 107.62 13.3739 106.977C13.3739 106.977 16.5861 104.668 11.4331 103.853L10.9834 103.8Z" fill="#D99379"/>
<path d="M73.8547 62.1201C74.0605 62.0601 74.1154 61.6268 73.9773 61.1523C73.8392 60.6779 73.5604 60.3419 73.3546 60.4019C73.1488 60.4619 73.0939 60.8951 73.232 61.3696C73.3701 61.8441 73.6488 62.1801 73.8547 62.1201Z" fill="#1A1A1A" stroke="#1A1A1A" stroke-width="0.25" stroke-miterlimit="10"/>
<path d="M65.549 62.6965C65.7548 62.6365 65.8097 62.2032 65.6716 61.7288C65.5335 61.2543 65.2547 60.9183 65.0489 60.9783C64.8431 61.0383 64.7882 61.4716 64.9263 61.946C65.0644 62.4205 65.3432 62.7565 65.549 62.6965Z" fill="#1A1A1A" stroke="#1A1A1A" stroke-width="0.25" stroke-miterlimit="10"/>
<path d="M125.85 36.4619C125.85 36.4619 121.492 30.5919 115.849 34.1391C110.206 37.6863 114.641 45.8202 114.641 45.8202C114.641 45.8202 123.644 59.3124 125.397 60.2876L129.113 52.2502L125.212 47.6501L129.68 42.2918L125.85 36.4619Z" fill="#F25E65"/>
<path d="M129.02 38.0452L131.488 42.3961L127.77 47.2695L130.929 52.2474L127.516 60.408L140.817 46.9614C140.817 46.9614 144.723 38.7659 140.581 35.1999C136.44 31.634 131.344 35.3741 130.594 36.0305C129.845 36.6868 129.02 38.0452 129.02 38.0452Z" fill="#F25E65"/>
<path d="M50.4294 3.5597C50.4294 3.5597 52.2496 0.0205375 57.5418 1.49139C57.5418 1.49139 61.7258 -2.01294 65.2539 1.7218C65.2539 1.7218 70.5113 0.342036 72.3664 4.42238C72.3664 4.42238 77.8647 4.82425 77.4524 9.0198C77.4524 9.0198 81.4678 11.1444 78.5901 15.3399C78.5901 15.3399 79.5458 18.9005 76.3174 19.5328C76.3174 19.5328 76.1997 26.37 68.1904 25.159C68.1904 25.159 67.5908 33.5474 64.4241 28.2025C61.2573 22.8576 61.9721 23.5488 58.029 21.4243C58.029 21.4243 52.5896 23.0318 51.2137 18.6085C51.2137 18.6085 45.2202 18.8469 46.1865 14.6192C46.1865 14.6192 41.3039 11.0051 46.0794 8.40092C46.0714 8.40628 44.6928 4.65279 50.4294 3.5597Z" fill="#92CCBB"/>
<path d="M74.2065 14.4503C74.2065 14.4503 70.1911 15.0692 67.276 12.2828C67.276 12.2828 65.0863 9.47778 67.276 8.55615C67.276 8.55615 69.4657 8.55615 67.6401 12.2828C65.8144 16.0095 59.6094 15.3799 57.7918 13.5206C57.7918 13.5206 55.9689 12.591 55.6048 10.7343C55.6048 10.7343 55.2408 9.49386 56.3329 8.87497C57.4251 8.25609 58.1586 10.4235 57.7918 10.7343C57.4251 11.0451 57.7918 13.5206 53.4152 13.8314C49.0385 14.1422 49.3998 11.9721 49.3998 12.591" stroke="white" stroke-width="0.75" stroke-miterlimit="10"/>
<path d="M55.7541 124.409C55.7541 124.61 55.8141 124.807 55.9266 124.975C56.0391 125.142 56.199 125.273 56.3861 125.35C56.5732 125.427 56.779 125.447 56.9777 125.408C57.1763 125.369 57.3587 125.272 57.5019 125.129C57.6451 124.987 57.7426 124.805 57.7821 124.608C57.8216 124.41 57.8013 124.205 57.7238 124.019C57.6463 123.833 57.5151 123.674 57.3467 123.562C57.1784 123.45 56.9804 123.39 56.7779 123.39C56.5064 123.39 56.2459 123.498 56.0539 123.689C55.8619 123.88 55.7541 124.139 55.7541 124.409Z" fill="white"/>
<path d="M42.3839 124.409C42.384 124.61 42.4436 124.806 42.5552 124.973C42.6669 125.14 42.8256 125.271 43.0116 125.348C43.1975 125.426 43.4023 125.447 43.6004 125.409C43.7984 125.372 43.9809 125.277 44.1248 125.136C44.2688 124.996 44.3678 124.816 44.4095 124.62C44.4512 124.423 44.4337 124.219 44.3593 124.033C44.2848 123.846 44.1566 123.686 43.9909 123.572C43.8251 123.457 43.6292 123.394 43.4276 123.391C43.2914 123.388 43.1562 123.412 43.0297 123.462C42.9032 123.512 42.788 123.587 42.6908 123.682C42.5936 123.777 42.5164 123.89 42.4637 124.015C42.411 124.14 42.3839 124.274 42.3839 124.409Z" fill="white"/>
<path d="M29.0544 124.409C29.0544 124.611 29.1145 124.808 29.2272 124.976C29.3399 125.143 29.5 125.274 29.6873 125.351C29.8746 125.428 30.0807 125.448 30.2794 125.408C30.4781 125.368 30.6605 125.271 30.8036 125.128C30.9466 124.985 31.0438 124.803 31.0829 124.606C31.1219 124.408 31.1011 124.203 31.023 124.017C30.9449 123.831 30.813 123.672 30.6441 123.56C30.4753 123.449 30.2769 123.39 30.0742 123.391C29.94 123.391 29.807 123.417 29.683 123.468C29.559 123.519 29.4464 123.595 29.3517 123.689C29.2569 123.784 29.1819 123.896 29.1308 124.02C29.0798 124.143 29.0538 124.276 29.0544 124.409Z" fill="#787CC8"/>
<path d="M15.7013 124.409C15.7013 124.611 15.7614 124.808 15.8739 124.975C15.9864 125.143 16.1463 125.273 16.3334 125.35C16.5204 125.427 16.7263 125.448 16.9249 125.408C17.1235 125.369 17.306 125.272 17.4491 125.13C17.5923 124.987 17.6898 124.806 17.7293 124.608C17.7689 124.41 17.7486 124.206 17.6711 124.019C17.5936 123.833 17.4624 123.674 17.294 123.562C17.1256 123.45 16.9277 123.391 16.7252 123.391C16.4536 123.391 16.1932 123.498 16.0012 123.689C15.8092 123.88 15.7013 124.139 15.7013 124.409Z" fill="#787CC8"/>
<path d="M42.3839 137.576C42.3839 137.778 42.444 137.975 42.5565 138.142C42.669 138.31 42.8289 138.44 43.016 138.518C43.2031 138.595 43.4089 138.615 43.6075 138.576C43.8061 138.536 43.9886 138.439 44.1318 138.297C44.2749 138.154 44.3725 137.973 44.412 137.775C44.4515 137.578 44.4312 137.373 44.3537 137.187C44.2762 137.001 44.145 136.841 43.9766 136.73C43.8082 136.618 43.6103 136.558 43.4078 136.558C43.1362 136.558 42.8758 136.665 42.6838 136.856C42.4918 137.047 42.3839 137.306 42.3839 137.576Z" fill="#787CC8"/>
<path d="M29.0544 137.576C29.0544 137.778 29.1145 137.975 29.2272 138.143C29.3399 138.31 29.5 138.441 29.6873 138.518C29.8746 138.595 30.0807 138.615 30.2794 138.575C30.4781 138.536 30.6605 138.438 30.8036 138.295C30.9466 138.153 31.0438 137.971 31.0829 137.773C31.1219 137.575 31.1011 137.37 31.023 137.184C30.9449 136.998 30.813 136.839 30.6441 136.728C30.4753 136.616 30.2769 136.557 30.0742 136.558C29.94 136.558 29.807 136.584 29.683 136.635C29.559 136.687 29.4464 136.762 29.3517 136.856C29.2569 136.951 29.1819 137.063 29.1308 137.187C29.0798 137.311 29.0538 137.443 29.0544 137.576Z" fill="#787CC8"/>
<path d="M15.7013 137.576C15.7013 137.778 15.7614 137.975 15.8739 138.142C15.9864 138.31 16.1463 138.44 16.3334 138.518C16.5204 138.595 16.7263 138.615 16.9249 138.576C17.1235 138.536 17.306 138.439 17.4491 138.297C17.5923 138.154 17.6898 137.973 17.7293 137.775C17.7689 137.578 17.7486 137.373 17.6711 137.187C17.5936 137.001 17.4624 136.841 17.294 136.73C17.1256 136.618 16.9277 136.558 16.7252 136.558C16.4536 136.558 16.1932 136.665 16.0012 136.856C15.8092 137.047 15.7013 137.306 15.7013 137.576Z" fill="#787CC8"/>
<path d="M55.7532 150.744C55.7501 150.946 55.8074 151.144 55.918 151.314C56.0286 151.483 56.1874 151.616 56.3742 151.696C56.5609 151.775 56.7673 151.798 56.9669 151.76C57.1666 151.723 57.3505 151.627 57.4952 151.485C57.64 151.343 57.7391 151.162 57.7799 150.964C57.8207 150.766 57.8014 150.56 57.7244 150.373C57.6474 150.186 57.5162 150.026 57.3475 149.914C57.1788 149.801 56.9802 149.741 56.7771 149.741C56.5082 149.741 56.2502 149.846 56.0586 150.033C55.8671 150.221 55.7574 150.476 55.7532 150.744Z" fill="#787CC8"/>
<path d="M42.3841 150.744C42.381 150.945 42.4379 151.142 42.5476 151.312C42.6574 151.481 42.815 151.614 43.0006 151.694C43.1862 151.774 43.3916 151.797 43.5906 151.761C43.7897 151.725 43.9736 151.632 44.1191 151.492C44.2646 151.352 44.3652 151.172 44.4082 150.976C44.4512 150.779 44.4347 150.574 44.3607 150.387C44.2868 150.199 44.1587 150.038 43.9926 149.923C43.8265 149.808 43.63 149.745 43.4277 149.741C43.2929 149.738 43.1589 149.762 43.0334 149.811C42.908 149.86 42.7934 149.933 42.6965 150.026C42.5995 150.12 42.522 150.231 42.4684 150.354C42.4148 150.477 42.3861 150.609 42.3841 150.744Z" fill="#787CC8"/>
<path d="M28.8084 150.776C28.8052 150.978 28.8627 151.177 28.9735 151.347C29.0842 151.516 29.2432 151.649 29.4303 151.729C29.6173 151.808 29.8238 151.83 30.0236 151.792C30.2233 151.755 30.4072 151.658 30.5518 151.516C30.6964 151.374 30.7952 151.192 30.8356 150.994C30.8759 150.796 30.856 150.59 30.7784 150.403C30.7008 150.216 30.569 150.056 30.3998 149.944C30.2306 149.832 30.0316 149.772 29.8283 149.773C29.5598 149.773 29.3022 149.878 29.1113 150.066C28.9203 150.254 28.8115 150.509 28.8084 150.776Z" fill="#787CC8"/>
<path d="M15.7015 150.744C15.6983 150.946 15.7557 151.144 15.8663 151.314C15.9768 151.483 16.1356 151.616 16.3224 151.696C16.5092 151.775 16.7155 151.798 16.9152 151.76C17.1148 151.723 17.2987 151.627 17.4435 151.485C17.5883 151.343 17.6874 151.162 17.7282 150.964C17.769 150.766 17.7496 150.56 17.6726 150.373C17.5956 150.186 17.4644 150.026 17.2957 149.914C17.127 149.801 16.9285 149.741 16.7253 149.741C16.4565 149.741 16.1984 149.846 16.0069 150.033C15.8153 150.221 15.7056 150.476 15.7015 150.744Z" fill="#787CC8"/>
</svg>
