<svg width="361" height="324" viewBox="0 0 361 324" fill="none" xmlns="http://www.w3.org/2000/svg">
<circle cx="141.935" cy="141.935" r="141.935" fill="#F4FAF8"/>
<path d="M198.247 70.2465C199.048 65.3946 201.639 54.6814 204.45 49.346C207.262 44.0106 210.976 38.1324 220.864 37.2544C230.752 36.3765 252.071 38.0094 255.675 38.548C259.279 39.0866 260.234 39.6677 259.695 43.0309C259.157 46.3942 257.151 55.5933 253.072 60.2628C248.993 64.9323 243.434 65.5643 234.53 65.0935C225.626 64.6227 215.381 63.0917 211.209 63.5879C207.037 64.0841 205.383 66.3828 203.827 68.3634C202.271 70.3441 200.215 73.5971 198.565 73.5758C197.518 73.5589 198.247 70.2465 198.247 70.2465Z" fill="#5C64E0"/>
<path d="M219.474 50.4611C217.592 50.47 215.729 50.0918 214 49.3499L214.144 49.0106C215.884 49.7572 217.761 50.1305 219.654 50.1064C221.547 50.0823 223.414 49.6613 225.135 48.8706C225.325 48.7773 225.508 48.6883 225.673 48.595C225.118 48.2088 224.694 47.663 224.456 47.03C224.337 46.6367 224.323 46.2194 224.413 45.8187C224.504 45.418 224.697 45.0477 224.973 44.744C225.158 44.5154 225.402 44.3423 225.679 44.2435C225.956 44.1447 226.255 44.1242 226.542 44.1841C226.781 44.2457 227.003 44.3584 227.193 44.5144C227.383 44.6704 227.538 44.8659 227.645 45.0875C227.795 45.3884 227.881 45.7177 227.895 46.0539C227.91 46.3901 227.853 46.7256 227.73 47.0384C227.434 47.6807 226.954 48.2208 226.351 48.5907C226.756 48.8167 227.182 49.0014 227.624 49.1421C229.322 49.685 231.115 49.861 232.887 49.6585C234.658 49.456 236.366 48.8795 237.897 47.9673C237.776 47.8492 237.664 47.7215 237.562 47.5856C237.248 47.1989 237.056 46.7268 237.012 46.2301C236.968 45.7334 237.074 45.2349 237.316 44.7991C237.474 44.5669 237.683 44.3744 237.927 44.2368C238.171 44.0992 238.444 44.0202 238.724 44.006C238.955 43.9851 239.187 44.0188 239.402 44.1043C239.617 44.1897 239.809 44.3246 239.962 44.498C240.096 44.6573 240.194 44.8436 240.248 45.0442C240.303 45.2448 240.314 45.4549 240.28 45.6601C240.157 46.5804 239.356 47.4286 238.703 47.8782L238.508 48.0139C238.975 48.3544 239.489 48.6245 240.034 48.8155C241.875 49.4842 243.851 49.6919 245.791 49.4206C247.73 49.1493 249.574 48.4071 251.161 47.259L251.105 46.8985L252.441 46.6907L251.945 47.1148C250.291 48.4723 248.313 49.3749 246.204 49.7334C244.095 50.0919 241.929 49.8939 239.92 49.159C239.301 48.9374 238.72 48.6213 238.198 48.2217C236.613 49.1845 234.84 49.7963 232.998 50.0158C231.156 50.2353 229.289 50.0574 227.522 49.4941C226.997 49.3251 226.493 49.0959 226.021 48.8113C225.8 48.9385 225.559 49.0657 225.296 49.1887C223.472 50.0336 221.484 50.468 219.474 50.4611ZM226.203 44.498C226.018 44.5068 225.837 44.554 225.672 44.6365C225.506 44.719 225.359 44.835 225.241 44.9772C225.012 45.2349 224.854 45.5466 224.779 45.8828C224.705 46.219 224.718 46.5686 224.817 46.8985C225.053 47.5094 225.48 48.0282 226.033 48.3787C226.635 48.0352 227.115 47.5136 227.407 46.8858C227.509 46.622 227.555 46.34 227.543 46.0575C227.531 45.7751 227.46 45.4982 227.335 45.2444C227.254 45.0705 227.137 44.9162 226.99 44.7924C226.844 44.6686 226.672 44.5783 226.487 44.5277C226.402 44.5094 226.316 44.4995 226.229 44.498H226.203ZM238.843 44.3707H238.758C238.535 44.3816 238.317 44.4435 238.122 44.5516C237.926 44.6596 237.758 44.811 237.63 44.9942C237.427 45.3673 237.341 45.7927 237.383 46.2155C237.424 46.6382 237.592 47.0386 237.863 47.365C237.972 47.5077 238.093 47.6411 238.224 47.7637C238.321 47.7043 238.415 47.6407 238.508 47.5771C239.14 47.153 239.827 46.3599 239.928 45.6092C239.953 45.473 239.951 45.3331 239.922 45.1977C239.893 45.0623 239.838 44.934 239.759 44.8201C239.68 44.7062 239.58 44.609 239.463 44.5341C239.347 44.4592 239.217 44.408 239.08 44.3835C239.001 44.3749 238.922 44.3749 238.843 44.3835V44.3707Z" fill="white"/>
<path d="M225.896 60.622C224.897 60.634 223.908 60.4239 223 60.007L223.157 59.6762C224.755 60.4269 226.757 60.4481 228.792 59.7398C230.431 59.1074 231.969 58.2371 233.354 57.1569C233.088 56.8769 232.867 56.5562 232.701 56.2069C232.494 55.796 232.405 55.3351 232.446 54.8764C232.486 54.4177 232.654 53.9795 232.93 53.6113C233.102 53.4173 233.313 53.2624 233.549 53.1571C233.785 53.0517 234.041 52.9983 234.3 53.0006C234.516 52.9946 234.731 53.0359 234.929 53.1216C235.128 53.2073 235.305 53.3354 235.449 53.4968C235.669 53.8035 235.793 54.168 235.808 54.545C235.822 54.922 235.725 55.2949 235.53 55.6174C235.149 56.2113 234.646 56.7173 234.054 57.1018L233.918 57.2036C234.166 57.4215 234.429 57.6201 234.707 57.7973C235.999 58.6253 237.471 59.1294 238.999 59.2667C240.527 59.404 242.066 59.1706 243.484 58.5862L243.628 58.9212C242.154 59.5277 240.555 59.7696 238.967 59.6264C237.38 59.4831 235.85 58.959 234.508 58.0985C234.192 57.898 233.894 57.671 233.617 57.4199C232.19 58.5387 230.604 59.4379 228.911 60.0876C227.943 60.4339 226.924 60.6146 225.896 60.622ZM234.304 53.3653C234.099 53.3646 233.895 53.4073 233.708 53.4906C233.52 53.5739 233.352 53.696 233.214 53.8488C232.982 54.1623 232.842 54.5348 232.81 54.9239C232.779 55.313 232.857 55.7031 233.036 56.05C233.192 56.377 233.399 56.6765 233.651 56.9364L233.838 56.8007C234.387 56.4454 234.855 55.9787 235.212 55.4308C235.372 55.1754 235.454 54.8784 235.447 54.5768C235.44 54.2752 235.345 53.9822 235.173 53.7343C235.064 53.6135 234.93 53.5182 234.779 53.4551C234.629 53.3921 234.467 53.3629 234.304 53.3696V53.3653Z" fill="white"/>
<path d="M267.367 322.944L267.371 322.943C269.928 322.422 271.578 319.927 271.057 317.37L254.214 234.635C253.693 232.078 251.199 230.427 248.643 230.948L248.639 230.949C246.082 231.47 244.432 233.965 244.953 236.521L261.796 319.257C262.317 321.814 264.811 323.464 267.367 322.944Z" fill="#7B939A"/>
<path d="M251.319 267.652L262.424 259L250 260.909L251.319 267.652Z" fill="#5A6B71"/>
<path d="M175.633 230.944L175.629 230.943C173.072 230.422 170.578 232.073 170.057 234.63L153.214 317.365C152.693 319.922 154.344 322.417 156.9 322.937L156.904 322.938C159.46 323.459 161.955 321.808 162.475 319.251L179.319 236.516C179.839 233.959 178.189 231.464 175.633 230.944Z" fill="#7B939A"/>
<path d="M212.728 206H212.724C210.115 206 208 208.115 208 210.725V295.158C208 297.767 210.115 299.883 212.724 299.883H212.728C215.336 299.883 217.451 297.767 217.451 295.158V210.725C217.451 208.115 215.336 206 212.728 206Z" fill="#7B939A"/>
<path d="M164 264.731L177.568 261.015L165.365 258L164 264.731Z" fill="#5A6B71"/>
<path d="M317.216 213.42C318.343 265.697 226.316 268.288 174.993 262.045C134.932 257.172 106.138 220.545 99.1246 175.131C91.1362 123.422 104.705 83.1313 156.417 82.0116C208.13 80.8919 316.092 161.169 317.216 213.42Z" fill="#A7C5CD"/>
<path d="M120.487 142.091C120.487 142.091 130.952 134.601 143.52 133.49C163.788 131.7 191.132 135.14 196.301 138.508C201.906 144.42 200.732 182.531 200.732 182.531C200.732 182.531 193.613 190.203 177.411 194.139C167.464 196.526 157.288 197.83 147.06 198.028C147.06 198.028 130.469 186.713 124.376 171.334C117.897 154.942 118.198 146.269 120.487 142.091Z" fill="#577E95"/>
<path d="M185.149 85C185.149 85 193.137 87.286 197.093 90.7765C207.999 97.3079 217.403 115.965 219.629 121.041C221.856 126.118 225.447 134.541 230.395 137.12C235.343 139.698 247.275 135.847 256.302 129.185C263.101 124.097 269.541 118.544 275.574 112.568C278.542 109.658 282.324 106.477 289.71 106.728C297.097 106.978 301.549 107.707 301.617 109.12C301.684 110.532 297.8 110.417 296.316 110.57C294.832 110.723 291.915 110.909 291.898 112.084C291.881 113.259 296.986 114.586 300.934 116.045C304.881 117.504 310.283 119.303 310.211 120.533C310.189 120.89 310.082 121.236 309.898 121.543C309.715 121.85 309.46 122.109 309.156 122.297C309.156 122.297 312.933 123.896 312.611 125.537C314.036 126.385 313.883 129.142 311.403 128.837C308.922 128.531 298.114 125.512 295.642 125.049C293.17 124.587 288.858 125.079 281.866 130.75C274.874 136.42 244.663 163.161 229.602 157.957C221.588 151.018 182.287 104.064 185.149 85Z" fill="#D8BEB5"/>
<path d="M270.671 244L296.015 249.318C296.015 249.318 291.308 261.775 290.244 264.909C289.18 268.043 288.467 272.297 291.872 275.966C295.277 279.634 298.771 284.681 301.59 288.308C304.41 291.934 305.491 294.72 304.444 297.146C303.397 299.572 297.058 300.467 289.129 296.022C281.2 291.578 270.379 283.46 267.453 280.682C264.527 277.904 264.705 275.067 265.511 271.169C266.317 267.271 270.794 244.988 270.671 244Z" fill="#D8BEB5"/>
<path d="M317 264.634L338.073 257C338.073 257 340.007 271.882 340.571 275.275C341.135 278.668 342.152 282.159 347.071 287.549C357.599 298.542 361.394 302.75 359.791 306.783C358.189 310.816 351.493 308.568 348.419 307.067C345.345 305.566 333.511 299.687 330.386 297.52C327.261 295.353 323.424 290.141 322.499 283.401C321.575 276.662 318.883 269.405 317 264.634Z" fill="#D8BEB5"/>
<path d="M138.298 96.0191L136 91.5108L146.8 86.6588L174.114 84.3856C177.579 84.0754 181.059 83.9522 184.537 84.0166C186.067 88.2196 191.893 98.4366 196.545 100.88C200.272 102.835 206.573 107.699 209.138 115.766C212.242 122.001 212.106 130.216 215.201 136.387C217.444 140.865 221.684 150.561 225.208 154.708C208.417 168.976 190.863 180.27 172.27 169.128C153.677 157.987 138.298 96.0191 138.298 96.0191Z" fill="#C45757"/>
<path d="M180.127 49.0004C182.769 48.9707 183.816 50.7223 183.833 52.2703C183.865 53.2568 183.528 54.2198 182.889 54.9712C182.249 55.7226 181.352 56.2083 180.373 56.3334C179.716 53.513 180.127 49.0004 180.127 49.0004Z" fill="#846960"/>
<path d="M150.707 75.2984C150.707 75.2984 143.596 82.415 137.91 77.4741C132.224 72.5331 139.873 67.1341 142.371 66.0229C138.364 62.3713 131.974 54.8474 133.14 42.5098C135.319 22.9665 146.759 17.911 154.476 18.297C160.883 13.4112 175.567 16.4139 181.592 26.4061C187.617 36.3983 186.37 46.1445 181.041 49.1303C173.035 56.5651 150.707 75.2984 150.707 75.2984Z" fill="#B9922D"/>
<path d="M144.972 51.1964C139.918 52.2185 138.587 55.726 139.104 59.2165C139.621 62.707 145.4 64.3992 146.774 62.673C148.335 69.9254 152.486 78.0261 144.396 88.612C149.984 88.8283 156.65 93.3113 162.34 94.8508C168.03 96.3904 173.021 95.7542 175.544 93.3791C178.889 89.2567 177.24 86.1691 175.883 85.9401C174.526 85.7111 167.271 84.2436 168.954 76.3593C173.589 75.4177 179.105 66.5579 180.246 59.3946C181.386 52.2313 183.002 43.1679 176.968 34.7958C173.228 29.6173 163.595 28.786 158.634 29.0405C157.913 33.9476 154.538 38.562 151.472 41.183C147.885 44.2536 144.892 48.5838 144.972 51.1964Z" fill="#D8BEB5"/>
<path d="M173.632 166.739L166 175.128C166 175.128 170.015 186.278 174.111 192.703C178.207 199.129 189.376 223.083 219.12 217.531C248.865 211.979 274.751 196.325 278.906 195.456C272.381 212.476 259.885 242.27 259.885 242.27L295.078 249.654L300.09 238.398L303.859 269.176L337.454 256.605C337.454 256.605 336.987 230.861 335.804 217.777C334.621 204.693 334.575 191.524 320.074 184.365C326.663 165.704 319.819 158.85 314.095 155.317C308.371 151.784 290.541 152.306 263.574 156.78C236.607 161.255 173.632 166.739 173.632 166.739Z" fill="#39386D"/>
<path d="M161.056 50.7994C161.336 49.3659 161.595 48.9757 162.087 49.0012C162.579 49.0266 162.757 49.7561 162.63 50.9266C162.502 52.0972 162.083 52.7928 161.676 52.7885C161.269 52.7843 160.844 51.8343 161.056 50.7994Z" fill="#191919"/>
<path d="M175.14 51.6639C175.458 50.5485 175.729 49.9675 176.242 50.0014C176.755 50.0353 176.806 51.0659 176.633 52.0838C176.459 53.1017 176.069 53.7803 175.623 53.7294C175.178 53.6785 174.78 52.9405 175.14 51.6639Z" fill="#191919"/>
<path d="M144.61 192.073L144.428 191.776C144.428 191.776 145.352 191.186 146.399 189.316C147.374 187.59 148.659 184.384 149.278 178.917C149.8 174.251 147.811 169.056 143.194 162.983C149.418 171.168 146.459 164.581 130.393 149.508C128.608 147.812 127.064 146.383 126 145.238L126.254 145C127.31 146.137 128.849 147.579 130.634 149.241C134.603 152.965 139.539 157.596 143.469 162.758C145.397 165.21 147.003 167.9 148.248 170.761C149.448 173.666 149.91 176.419 149.626 178.946C148.998 184.498 147.684 187.759 146.688 189.515C145.594 191.454 144.652 192.047 144.61 192.073Z" fill="white"/>
<path d="M172.106 61.5932L172 61.2581C172.441 61.1275 172.836 60.8758 173.141 60.5317C173.446 60.1876 173.649 59.7648 173.726 59.3114C173.828 58.7346 173.467 58.3232 173.119 57.9203C172.855 57.6843 172.671 57.3714 172.594 57.0254L172.946 57C173.021 57.2648 173.168 57.5039 173.37 57.6913C173.734 58.1154 174.188 58.6329 174.061 59.3878C173.972 59.9007 173.742 60.3786 173.396 60.7682C173.051 61.1577 172.604 61.4434 172.106 61.5932Z" fill="#191919"/>
<path d="M300 238.007C300.136 237.71 313.607 208.162 319.975 184L320.31 184.089C313.95 208.264 300.454 237.854 300.318 238.151L300 238.007Z" fill="#605B98"/>
<path d="M359.292 306.386C360.725 302.781 357.842 299.032 349.688 290.422C351.418 292.242 350.985 294.074 350.176 295.422C349.366 296.771 343.196 297.047 335.428 292.84C330.553 290.143 326.04 286.837 322 283C322.924 289.739 326.762 294.943 329.887 297.119C333.012 299.295 344.85 305.177 347.92 306.67C350.99 308.163 357.693 310.419 359.292 306.386Z" fill="#392A2A"/>
<path d="M272.792 275.828C270.429 273.693 268.201 271.412 266.122 269C265.851 270.344 265.634 271.392 265.511 272.003C264.706 275.9 264.528 278.746 267.449 281.516C270.37 284.285 281.196 292.403 289.129 296.847C297.062 301.292 303.393 300.402 304.44 297.976C305.487 295.55 304.406 292.759 301.586 289.133C299.979 287.067 298.148 284.535 296.244 282.059C295.9 283.886 295.057 285.553 293.233 286.206C288.391 287.933 276.896 279.433 272.792 275.828Z" fill="#392A2A"/>
<path d="M285.655 182L279.443 195.652L269 200.373L285.655 182Z" fill="#17161F"/>
<path d="M269 250.777L282.437 246.583L270.141 244L269 250.777Z" fill="#AE8D81"/>
<path d="M317 264.169L328.135 260L318.95 269.39L317 264.169Z" fill="#AE8D81"/>
<path d="M224 155.809L228.952 152.79C228.952 152.79 242.148 145.096 248.033 141.279C253.918 137.462 255.445 136.554 258.277 137.182C261.11 137.81 267.368 140.108 270.429 141.254C273.491 142.399 274.576 143.892 270.319 146.916C266.062 149.94 247.677 161.76 247.677 161.76L231.632 162.918L224 155.809Z" fill="#293C7C"/>
<path d="M136.459 92.0031C132.546 91.7995 123.629 101.758 126.593 114.333C129.556 126.908 143.685 159.764 158.3 170.049C172.916 180.334 182.359 184.469 208.287 177.382C217.734 175.13 220.77 171.512 230.823 170.104C240.877 168.696 247.33 167.619 248.916 163.781C252.855 160.948 253.915 158.831 253.466 157.542C248.462 159.438 233.842 161.575 229.479 156.617C227.72 154.115 228.555 152.699 229.628 152.122C230.7 151.545 236.768 147.881 236.768 147.881C236.768 147.881 232.456 144.407 226.537 147.656C220.617 150.904 214.622 157.478 209.644 159.531C204.666 161.584 188.596 165.867 175.227 155.413C161.858 144.958 157.707 125.61 156.57 120.037C155.434 114.464 151.274 92.7622 136.459 92.0031Z" fill="#D8BEB5"/>
<path d="M355.058 196.796C354.027 197.22 353.612 197.288 352.734 195.922C351.856 194.557 351.398 193.433 353.531 193" fill="white"/>
<path d="M146.735 225.122C146.735 225.541 146.86 225.951 147.094 226.3C147.329 226.649 147.662 226.921 148.051 227.082C148.441 227.242 148.87 227.284 149.284 227.202C149.697 227.121 150.077 226.918 150.375 226.622C150.674 226.325 150.877 225.947 150.959 225.535C151.041 225.124 150.999 224.697 150.838 224.31C150.676 223.922 150.403 223.591 150.052 223.358C149.702 223.124 149.289 223 148.868 223C148.302 223 147.76 223.224 147.36 223.621C146.96 224.019 146.735 224.559 146.735 225.122Z" fill="white"/>
<path d="M118.735 225.122C118.735 225.54 118.859 225.948 119.092 226.296C119.324 226.644 119.655 226.916 120.042 227.078C120.43 227.24 120.856 227.284 121.269 227.205C121.681 227.127 122.061 226.929 122.361 226.636C122.661 226.343 122.867 225.969 122.954 225.56C123.041 225.152 123.004 224.726 122.849 224.338C122.694 223.95 122.427 223.616 122.082 223.378C121.737 223.14 121.329 223.008 120.909 223C120.625 222.995 120.343 223.046 120.08 223.15C119.816 223.254 119.577 223.41 119.374 223.607C119.172 223.805 119.011 224.04 118.901 224.301C118.792 224.561 118.735 224.84 118.735 225.122Z" fill="white"/>
<path d="M90.7351 225.122C90.7351 225.542 90.8603 225.952 91.095 226.301C91.3297 226.65 91.6632 226.922 92.0534 227.082C92.4435 227.243 92.8727 227.284 93.2866 227.202C93.7005 227.119 94.0804 226.916 94.3783 226.619C94.6762 226.321 94.8787 225.943 94.96 225.53C95.0414 225.118 94.998 224.692 94.8353 224.304C94.6726 223.916 94.398 223.586 94.0463 223.354C93.6945 223.121 93.2814 222.998 92.8593 223C92.5796 223 92.3027 223.055 92.0445 223.162C91.7862 223.268 91.5517 223.425 91.3543 223.622C91.157 223.819 91.0007 224.053 90.8944 224.31C90.7881 224.568 90.734 224.843 90.7351 225.122Z" fill="#787CC8"/>
<path d="M63.7351 225.122C63.7351 225.541 63.8601 225.951 64.0944 226.3C64.3288 226.649 64.6618 226.921 65.0515 227.082C65.4411 227.242 65.8699 227.284 66.2836 227.202C66.6972 227.121 67.0772 226.918 67.3754 226.622C67.6736 226.325 67.8767 225.947 67.959 225.535C68.0413 225.124 67.9991 224.697 67.8377 224.31C67.6763 223.922 67.403 223.591 67.0523 223.358C66.7016 223.124 66.2893 223 65.8675 223C65.302 223 64.7596 223.224 64.3596 223.621C63.9597 224.019 63.7351 224.559 63.7351 225.122Z" fill="#787CC8"/>
<path d="M118.735 252.122C118.735 252.541 118.86 252.951 119.094 253.3C119.329 253.649 119.662 253.921 120.051 254.082C120.441 254.242 120.87 254.284 121.284 254.202C121.697 254.121 122.077 253.918 122.375 253.622C122.674 253.325 122.877 252.947 122.959 252.535C123.041 252.124 122.999 251.697 122.838 251.31C122.676 250.922 122.403 250.591 122.052 250.358C121.702 250.124 121.289 250 120.868 250C120.302 250 119.76 250.224 119.36 250.621C118.96 251.019 118.735 251.559 118.735 252.122Z" fill="#787CC8"/>
<path d="M90.7351 252.122C90.7351 252.542 90.8603 252.952 91.095 253.301C91.3297 253.65 91.6632 253.922 92.0534 254.082C92.4435 254.243 92.8727 254.284 93.2866 254.202C93.7005 254.119 94.0804 253.916 94.3783 253.619C94.6762 253.321 94.8787 252.943 94.96 252.53C95.0414 252.118 94.998 251.692 94.8353 251.304C94.6726 250.916 94.398 250.586 94.0463 250.354C93.6945 250.121 93.2814 249.998 92.8593 250C92.5796 250 92.3027 250.055 92.0445 250.162C91.7862 250.268 91.5517 250.425 91.3543 250.622C91.157 250.819 91.0007 251.053 90.8944 251.31C90.7881 251.568 90.734 251.843 90.7351 252.122Z" fill="#787CC8"/>
<path d="M63.7351 252.122C63.7351 252.541 63.8601 252.951 64.0944 253.3C64.3288 253.649 64.6618 253.921 65.0515 254.082C65.4411 254.242 65.8699 254.284 66.2836 254.202C66.6972 254.121 67.0772 253.918 67.3754 253.622C67.6736 253.325 67.8767 252.947 67.959 252.535C68.0413 252.124 67.9991 251.697 67.8377 251.31C67.6763 250.922 67.403 250.591 67.0523 250.358C66.7016 250.124 66.2893 250 65.8675 250C65.302 250 64.7596 250.224 64.3596 250.621C63.9597 251.019 63.7351 251.559 63.7351 252.122Z" fill="#787CC8"/>
<path d="M145.735 253.089C145.729 253.51 145.848 253.923 146.079 254.276C146.309 254.629 146.64 254.906 147.029 255.072C147.418 255.238 147.847 255.284 148.263 255.206C148.679 255.128 149.062 254.929 149.364 254.633C149.665 254.338 149.872 253.96 149.957 253.548C150.042 253.135 150.001 252.707 149.841 252.317C149.68 251.928 149.407 251.595 149.056 251.36C148.705 251.125 148.291 251 147.868 251C147.308 251 146.77 251.219 146.371 251.61C145.972 252.001 145.744 252.532 145.735 253.089Z" fill="#787CC8"/>
<path d="M90.7353 280.089C90.7288 280.51 90.8485 280.924 91.0791 281.277C91.3098 281.63 91.641 281.908 92.0306 282.073C92.4201 282.238 92.8503 282.285 93.2663 282.206C93.6823 282.127 94.0654 281.927 94.3666 281.63C94.6678 281.334 94.8735 280.956 94.9576 280.543C95.0416 280.13 95.0002 279.701 94.8385 279.312C94.6769 278.922 94.4023 278.59 94.0499 278.356C93.6974 278.122 93.2831 277.998 92.8596 278C92.3004 278 91.7638 278.219 91.3662 278.61C90.9685 279.001 90.7418 279.533 90.7353 280.089Z" fill="#787CC8"/>
<path d="M63.7353 280.089C63.7288 280.51 63.8483 280.923 64.0786 281.276C64.3089 281.629 64.6396 281.906 65.0286 282.072C65.4177 282.238 65.8475 282.284 66.2633 282.206C66.6791 282.128 67.0621 281.929 67.3636 281.633C67.6652 281.338 67.8716 280.96 67.9565 280.548C68.0415 280.135 68.0013 279.707 67.8409 279.317C67.6805 278.928 67.4072 278.595 67.0559 278.36C66.7045 278.125 66.2909 278 65.8678 278C65.3079 278 64.7704 278.219 64.3714 278.61C63.9725 279.001 63.744 279.532 63.7353 280.089Z" fill="#787CC8"/>
</svg>
