<svg width="161" height="145" viewBox="0 0 161 145" fill="none" xmlns="http://www.w3.org/2000/svg">
<circle cx="71.8017" cy="77.4221" r="67.5781" fill="#F4FAF8"/>
<g clip-path="url(#clip0)">
<path d="M95.7675 28.4052C95.7675 28.4052 97.951 26.2273 100.578 27.966C103.206 29.7046 101.237 30.1438 105.182 30.1438C106.896 30.1438 108.239 31.6756 108.457 33.4106C108.763 35.6973 107.802 38.3725 109.782 39.0984C113.29 40.4124 111.536 41.5049 111.754 42.3652C111.973 43.2255 117.672 44.7717 115.892 48.4777C115.259 49.7953 116.576 51.3271 117.231 52.2018C117.887 53.0766 117.89 55.6973 117.013 56.5575C116.136 57.4178 115.921 58.318 116.02 59.5158C116.118 60.7136 115.878 61.9151 113.596 62.7318C111.314 63.5485 111.318 65.3016 110.441 66.612C109.564 67.9223 109.564 67.9223 107.373 67.9223C105.182 67.9223 103.701 71.857 102.249 72.7317C100.797 73.6065 73.5538 70.5248 73.5538 70.5248C73.5538 70.5248 72.4948 69.817 70.7589 71.0584C69.023 72.2998 67.2398 71.1709 66.4902 69.7662C65.7405 68.3615 64.2047 68.5793 63.3277 69.0149C62.4506 69.4504 59.9687 68.2163 60.1143 65.7735C60.2598 63.3307 57.8507 63.3343 56.9737 63.3343C56.0966 63.3343 52.8104 63.3343 53.4655 60.0675C54.1205 56.8007 51.7259 57.3198 51.0636 56.837C50.4013 56.3543 49.3022 53.2908 51.493 51.9804C53.6838 50.6701 50.1793 48.0458 50.6196 46.5358C51.06 45.0258 52.8031 43.9115 52.5921 41.5086C52.381 39.1057 51.0563 37.7917 53.9058 35.6066C56.7553 33.4215 56.8827 35.6792 57.585 32.9097C58.2874 30.1402 58.08 27.9115 61.5882 27.2799C65.0963 26.6484 63.5533 28.6121 67.2799 25.1021C71.0064 21.5921 71.2247 22.0422 73.1972 22.26C75.1696 22.4778 77.7935 18.7718 81.9531 19.8825C86.1127 20.9932 83.9255 20.9714 87.7758 20.5867C91.1894 20.2237 91.1712 22.5032 92.4849 23.5957C93.7987 24.6883 96.2151 25.1311 95.7675 28.4052Z" fill="#261E0F" stroke="#261E0F" stroke-miterlimit="10"/>
<path d="M74.6123 67.1999C74.6123 67.1999 92.3497 64.7934 94.3331 66.3215L94.9154 69.4467L83.8158 76.3759L74.6123 67.1999Z" fill="#D8DBE6"/>
<path d="M102.871 51.6973C102.056 54.6193 99.232 53.534 99.232 53.534C97.1795 60.5467 90.4506 63.3343 90.4506 63.3343C91.2439 68.5104 96.528 70.0603 96.528 70.0603C88.8857 79.8933 72.4839 73.1674 72.4839 73.1674C80.9414 67.7372 76.7017 51.1819 76.7017 51.1819C72.7386 51.1819 72.7386 48.0785 72.7386 48.0785C72.7386 44.1983 76.9674 44.4487 76.9674 44.4487C76.9674 44.4487 83.0448 45.7409 85.1556 40.5685C87.2663 35.3961 91.4987 34.1003 91.4987 34.1003C91.4987 34.1003 97.0485 32.0313 100.233 37.4651C100.233 37.4651 101.819 43.672 100.76 47.5522C100.757 47.5594 103.665 48.8516 102.871 51.6973Z" fill="#4D362E"/>
<path d="M93.6235 54.2853C93.6235 54.2853 94.6789 55.0621 95.4722 54.2853C96.2656 53.5086 95.2066 52.5757 95.2066 52.5757C95.2066 52.5757 94.9446 52.4741 94.9446 51.1819" stroke="#261E0F" stroke-miterlimit="10" stroke-linecap="round"/>
<path d="M73.736 72.6627C73.0264 72.4304 67.1636 75.287 67.1636 75.287C67.1636 75.287 59.8016 78.0856 57.9528 85.5883C56.1041 93.091 61.6503 107.574 65.0857 114.042C68.5211 120.51 76.1852 134.477 90.9822 134.732C105.779 134.986 110.703 125.418 110.703 125.418H112.384C112.384 125.418 133.521 102.136 123.746 87.3886C113.971 72.6409 110.798 71.091 105.779 70.8333C102.592 70.6573 99.4166 70.312 96.2663 69.7988C96.2663 69.7988 92.4087 78.8224 73.736 72.6627Z" fill="#D27C8C"/>
<path d="M116.005 100.26C116.005 100.26 114.498 88.9494 111.062 84.8115C111.062 84.8115 116.474 91.8242 119.644 98.8079L116.005 100.26Z" fill="#9E5C69"/>
<path d="M103.319 111.331L101.208 114.176C101.208 114.176 99.3557 112.623 97.245 114.692C97.245 114.692 94.865 118.057 91.6952 118.833C88.5255 119.61 84.2967 116.245 81.9167 112.881C81.9167 112.881 74.7839 102.274 73.7285 92.1909" stroke="white" stroke-width="0.75" stroke-miterlimit="10" stroke-linecap="round"/>
<path d="M111.434 117.479L110.375 120.067C110.375 120.067 112.216 121.116 110.848 125.443" stroke="white" stroke-width="0.75" stroke-miterlimit="10" stroke-linecap="round"/>
<path d="M125.067 57.6465C126.214 55.7759 127.799 54.2106 129.686 53.0847C131.573 51.9589 133.705 51.3059 135.9 51.1819H144.198L149.904 51.4541C149.904 51.4541 156.509 51.4541 155.727 56.8988C154.944 62.3434 153.35 63.8824 153.35 63.8824C153.35 63.8824 150.978 69.0548 145.686 69.0548C143.838 69.0548 142.025 69.0947 140.402 69.0548C137.749 68.9931 135.646 68.7971 135.646 68.7971C135.646 68.7971 126.912 67.7626 124.812 70.3506C122.712 72.9386 122.17 73.4541 122.17 73.4541C122.17 73.4541 119.793 76.0421 120.321 72.6773C120.849 69.3125 123.48 59.7191 125.067 57.6465Z" fill="#5C64E0" stroke="#979BE2" stroke-width="0.75" stroke-miterlimit="10"/>
<path d="M148.583 61.7881C147.662 61.9073 146.725 61.8047 145.851 61.489C144.978 61.1732 144.192 60.6535 143.561 59.9732C143.561 59.9732 141.978 57.6321 143.561 56.8625C143.561 56.8625 145.148 56.8625 143.827 59.9732C142.506 63.0839 138.004 62.5613 136.694 61.0077C136.288 60.7448 135.938 60.4035 135.665 60.004C135.393 59.6045 135.203 59.1547 135.107 58.6811C135.107 58.6811 134.842 57.6429 135.635 57.1275C136.428 56.6121 136.956 58.4197 136.694 58.6811C136.432 58.9424 136.694 61.0077 133.521 61.2654C130.347 61.5232 130.609 59.7155 130.609 60.231" stroke="white" stroke-width="0.75" stroke-miterlimit="10" stroke-linecap="round"/>
<path d="M89.345 47.9631C89.5052 47.4146 89.4411 46.9136 89.2018 46.8441C88.9626 46.7745 88.6387 47.1629 88.4785 47.7114C88.3183 48.2599 88.3825 48.7609 88.6217 48.8305C88.861 48.9 89.1849 48.5117 89.345 47.9631Z" fill="#1A1A1A" stroke="#1A1A1A" stroke-width="0.25" stroke-miterlimit="10"/>
<path d="M99.0111 48.6287C99.1712 48.0801 99.1071 47.5791 98.8679 47.5096C98.6286 47.4401 98.3047 47.8284 98.1445 48.3769C97.9844 48.9254 98.0485 49.4265 98.2877 49.496C98.527 49.5655 98.8509 49.1772 99.0111 48.6287Z" fill="#1A1A1A" stroke="#1A1A1A" stroke-width="0.25" stroke-miterlimit="10"/>
<path d="M87.7618 71.3524L92.1433 73.0983L93.0204 68.5103L96.3211 70.4957L91.2663 78.7825L82.998 74.2961L87.7618 71.3524Z" fill="#D27C8C"/>
<path d="M87.7616 71.3524C86.2258 72.8805 85.7891 78.3469 85.7891 78.3469C82.9069 75.9803 72.4224 72.8805 72.4224 72.8805C72.4224 72.8805 74.1765 69.8206 74.6059 67.2C76.8658 69.1419 84.2461 71.131 87.0956 71.3524H87.7616Z" fill="white"/>
<path d="M96.9649 73.9731C96.5755 71.2617 97.1833 69.8207 97.1833 69.8207C95.6475 68.7317 94.7741 66.7608 94.3338 66.3252C94.3338 66.9786 94.1154 67.6355 93.02 68.503L96.9649 73.9731Z" fill="white"/>
<path d="M127.083 102.285C127.083 102.285 116.958 97.16 111.94 99.4867C106.921 101.813 104.461 108.848 103.402 111.432C103.402 111.432 104.989 114.797 111.329 117.385L117.362 109.37L127.083 102.285Z" fill="#4D362E"/>
<path d="M157.721 111.715L126.1 131.2C125.372 131.646 124.484 131.839 124.04 131.639L97.4233 119.679C96.841 119.418 97.2959 118.623 98.3331 118.104L131.959 101.214C132.611 100.888 133.309 100.768 133.699 100.917L158.311 110.274C158.875 110.496 158.584 111.174 157.721 111.715Z" fill="#B4B7BF"/>
<path d="M119.131 124.267L117.86 125.294C117.836 125.313 117.807 125.324 117.776 125.328C117.745 125.332 117.714 125.328 117.686 125.316L115.866 124.528C115.837 124.515 115.812 124.494 115.794 124.467C115.776 124.44 115.767 124.408 115.767 124.376C115.767 124.344 115.776 124.312 115.794 124.285C115.812 124.258 115.837 124.237 115.866 124.224L117.442 123.389C117.464 123.378 117.488 123.373 117.513 123.373C117.538 123.373 117.562 123.378 117.584 123.389L119.109 123.988C119.133 124.001 119.153 124.021 119.167 124.044C119.182 124.068 119.191 124.094 119.193 124.122C119.195 124.149 119.191 124.177 119.18 124.202C119.169 124.227 119.152 124.25 119.131 124.267Z" fill="#6D6F74"/>
<path d="M121.373 122.775L120.103 123.802C120.079 123.822 120.049 123.834 120.018 123.838C119.988 123.842 119.956 123.837 119.928 123.824L118.108 123.036C118.08 123.022 118.056 123.001 118.04 122.974C118.023 122.947 118.014 122.916 118.014 122.884C118.014 122.852 118.023 122.821 118.04 122.794C118.056 122.768 118.08 122.746 118.108 122.732L119.684 121.897C119.706 121.886 119.731 121.881 119.755 121.881C119.78 121.881 119.804 121.886 119.826 121.897L121.355 122.496C121.378 122.51 121.398 122.53 121.412 122.553C121.427 122.577 121.435 122.603 121.437 122.631C121.439 122.658 121.434 122.686 121.423 122.711C121.411 122.736 121.394 122.758 121.373 122.775Z" fill="#6D6F74"/>
<path d="M125.15 130.424L98.5106 118.81C97.9894 118.583 97.3825 118.819 97.1551 119.338C96.9277 119.857 97.1659 120.462 97.6871 120.689L124.327 132.303C124.848 132.53 125.455 132.294 125.682 131.775C125.91 131.256 125.672 130.651 125.15 130.424Z" fill="#B4B7BF"/>
<path d="M158.47 114.433L124.74 130.336C124.174 130.602 123.933 131.275 124.2 131.839L124.202 131.842C124.469 132.406 125.143 132.647 125.708 132.38L159.439 116.477C160.004 116.211 160.246 115.538 159.978 114.974L159.977 114.971C159.71 114.407 159.035 114.166 158.47 114.433Z" fill="#B4B7BF"/>
<path d="M123.673 121.327L122.402 122.35C122.378 122.37 122.349 122.383 122.319 122.387C122.288 122.392 122.256 122.388 122.228 122.376L120.408 121.588C120.379 121.575 120.354 121.554 120.336 121.527C120.318 121.499 120.309 121.468 120.309 121.436C120.309 121.403 120.318 121.372 120.336 121.345C120.354 121.318 120.379 121.296 120.408 121.283L121.98 120.445C122.003 120.435 122.028 120.43 122.053 120.43C122.078 120.43 122.103 120.435 122.126 120.445L123.651 121.044C123.675 121.057 123.696 121.077 123.711 121.101C123.726 121.124 123.735 121.151 123.738 121.179C123.74 121.207 123.735 121.236 123.724 121.261C123.712 121.287 123.695 121.309 123.673 121.327Z" fill="#6D6F74"/>
<path d="M116.165 122.797L114.913 123.82C114.89 123.84 114.861 123.853 114.831 123.858C114.801 123.862 114.77 123.858 114.742 123.846L112.922 123.058C112.894 123.044 112.87 123.022 112.854 122.995C112.837 122.968 112.828 122.937 112.828 122.906C112.828 122.874 112.837 122.843 112.854 122.816C112.87 122.789 112.894 122.768 112.922 122.753L114.498 121.918C114.52 121.908 114.545 121.902 114.569 121.902C114.594 121.902 114.618 121.908 114.64 121.918L116.169 122.517C116.191 122.533 116.209 122.555 116.221 122.579C116.234 122.604 116.24 122.631 116.24 122.658C116.239 122.686 116.232 122.712 116.219 122.737C116.206 122.761 116.188 122.781 116.165 122.797Z" fill="#6D6F74"/>
<path d="M118.411 121.305L117.141 122.329C117.117 122.348 117.088 122.361 117.057 122.366C117.026 122.37 116.995 122.366 116.966 122.354L115.146 121.567C115.117 121.553 115.092 121.532 115.074 121.505C115.057 121.478 115.047 121.446 115.047 121.414C115.047 121.382 115.057 121.35 115.074 121.323C115.092 121.296 115.117 121.275 115.146 121.262L116.722 120.427C116.744 120.416 116.769 120.411 116.793 120.411C116.818 120.411 116.842 120.416 116.864 120.427L118.389 121.026C118.413 121.04 118.433 121.059 118.448 121.082C118.462 121.106 118.471 121.132 118.473 121.16C118.475 121.187 118.471 121.215 118.46 121.24C118.449 121.265 118.432 121.288 118.411 121.305Z" fill="#6D6F74"/>
<path d="M120.707 119.857L119.437 120.88C119.413 120.9 119.384 120.913 119.353 120.918C119.322 120.922 119.291 120.918 119.262 120.906L117.442 120.118C117.414 120.104 117.39 120.082 117.374 120.055C117.357 120.028 117.348 119.997 117.348 119.966C117.348 119.934 117.357 119.903 117.374 119.876C117.39 119.849 117.414 119.827 117.442 119.813L119.018 118.975C119.041 118.965 119.065 118.96 119.089 118.96C119.114 118.96 119.138 118.965 119.16 118.975L120.689 119.574C120.713 119.588 120.733 119.608 120.748 119.631C120.763 119.655 120.772 119.682 120.774 119.71C120.775 119.738 120.77 119.766 120.759 119.792C120.747 119.817 120.729 119.84 120.707 119.857Z" fill="#6D6F74"/>
<path d="M122.523 125.596L121.252 126.619C121.228 126.638 121.199 126.65 121.168 126.655C121.138 126.659 121.107 126.656 121.078 126.645L119.258 125.857C119.229 125.843 119.204 125.821 119.187 125.794C119.169 125.767 119.16 125.735 119.16 125.703C119.16 125.67 119.169 125.639 119.187 125.611C119.204 125.584 119.229 125.562 119.258 125.548L120.834 124.714C120.856 124.704 120.88 124.698 120.905 124.698C120.929 124.698 120.954 124.704 120.976 124.714L122.504 125.312C122.529 125.326 122.549 125.346 122.564 125.37C122.579 125.394 122.587 125.421 122.589 125.449C122.591 125.477 122.586 125.505 122.574 125.531C122.563 125.556 122.545 125.578 122.523 125.596Z" fill="#6D6F74"/>
<path d="M124.765 124.104L123.498 125.124C123.474 125.143 123.445 125.155 123.414 125.159C123.384 125.164 123.352 125.16 123.323 125.149L121.504 124.361C121.474 124.348 121.449 124.327 121.432 124.3C121.414 124.273 121.405 124.241 121.405 124.209C121.405 124.177 121.414 124.145 121.432 124.118C121.449 124.091 121.474 124.07 121.504 124.056L123.076 123.218C123.098 123.208 123.123 123.203 123.147 123.203C123.171 123.203 123.196 123.208 123.218 123.218L124.746 123.817C124.772 123.831 124.793 123.851 124.808 123.875C124.823 123.899 124.832 123.927 124.834 123.955C124.836 123.984 124.831 124.012 124.818 124.038C124.806 124.064 124.788 124.087 124.765 124.104Z" fill="#6D6F74"/>
<path d="M112.89 121.207L111.587 122.187C111.56 122.202 111.53 122.21 111.5 122.21C111.469 122.21 111.439 122.202 111.412 122.187L109.593 121.338C109.563 121.325 109.538 121.303 109.521 121.276C109.503 121.249 109.494 121.218 109.494 121.185C109.494 121.153 109.503 121.122 109.521 121.095C109.538 121.067 109.563 121.046 109.593 121.033L111.198 120.249C111.22 120.239 111.244 120.234 111.269 120.234C111.293 120.234 111.317 120.239 111.34 120.249L112.846 120.899C112.878 120.908 112.906 120.926 112.928 120.951C112.95 120.976 112.964 121.006 112.968 121.039C112.973 121.071 112.968 121.105 112.954 121.135C112.94 121.164 112.918 121.19 112.89 121.207Z" fill="#6D6F74"/>
<path d="M115.182 119.792L113.879 120.772C113.854 120.789 113.825 120.8 113.794 120.804C113.764 120.807 113.733 120.802 113.704 120.79L111.885 119.94C111.856 119.926 111.833 119.904 111.816 119.877C111.799 119.851 111.791 119.82 111.791 119.788C111.791 119.756 111.799 119.725 111.816 119.698C111.833 119.671 111.856 119.65 111.885 119.635L113.49 118.851C113.512 118.842 113.536 118.836 113.561 118.836C113.585 118.836 113.609 118.842 113.632 118.851L115.138 119.501C115.166 119.512 115.19 119.53 115.208 119.554C115.227 119.577 115.239 119.605 115.243 119.634C115.247 119.663 115.244 119.693 115.233 119.721C115.223 119.748 115.205 119.773 115.182 119.792Z" fill="#6D6F74"/>
<path d="M117.53 118.419L116.227 119.4C116.201 119.416 116.171 119.425 116.14 119.425C116.109 119.425 116.078 119.416 116.052 119.4L114.233 118.554C114.203 118.54 114.179 118.518 114.161 118.491C114.144 118.464 114.135 118.432 114.135 118.4C114.135 118.367 114.144 118.336 114.161 118.308C114.179 118.281 114.203 118.259 114.233 118.245L115.834 117.465C115.856 117.454 115.88 117.449 115.905 117.449C115.93 117.449 115.954 117.454 115.976 117.465L117.483 118.115C117.514 118.124 117.541 118.142 117.563 118.166C117.584 118.19 117.598 118.22 117.603 118.252C117.608 118.284 117.604 118.317 117.591 118.346C117.578 118.376 117.557 118.401 117.53 118.419Z" fill="#6D6F74"/>
<path d="M123.083 118.51L121.828 119.534C121.803 119.553 121.774 119.565 121.743 119.569C121.712 119.573 121.681 119.568 121.653 119.555L119.833 118.771C119.805 118.757 119.781 118.734 119.765 118.707C119.748 118.68 119.74 118.649 119.74 118.617C119.74 118.585 119.748 118.554 119.765 118.527C119.781 118.5 119.805 118.478 119.833 118.463L121.409 117.628C121.431 117.618 121.456 117.613 121.48 117.613C121.504 117.613 121.529 117.618 121.551 117.628L123.079 118.227C123.103 118.242 123.122 118.263 123.136 118.288C123.149 118.312 123.156 118.34 123.157 118.368C123.157 118.396 123.151 118.423 123.138 118.448C123.125 118.473 123.106 118.494 123.083 118.51Z" fill="#6D6F74"/>
<path d="M119.925 117.156L118.622 118.136C118.598 118.156 118.568 118.168 118.537 118.171C118.506 118.175 118.475 118.169 118.447 118.155L116.627 117.305C116.598 117.292 116.573 117.271 116.555 117.244C116.538 117.217 116.528 117.185 116.528 117.153C116.528 117.12 116.538 117.089 116.555 117.062C116.573 117.035 116.598 117.013 116.627 117L118.229 116.216C118.251 116.205 118.275 116.2 118.3 116.2C118.324 116.2 118.349 116.205 118.371 116.216L119.877 116.866C119.906 116.876 119.931 116.893 119.951 116.916C119.97 116.939 119.983 116.967 119.988 116.997C119.993 117.027 119.989 117.057 119.978 117.085C119.967 117.113 119.949 117.138 119.925 117.156Z" fill="#6D6F74"/>
<path d="M122.217 115.741L120.914 116.721C120.888 116.738 120.858 116.747 120.827 116.747C120.796 116.747 120.766 116.738 120.74 116.721L118.92 115.871C118.89 115.858 118.865 115.837 118.848 115.81C118.83 115.783 118.821 115.751 118.821 115.719C118.821 115.687 118.83 115.655 118.848 115.628C118.865 115.601 118.89 115.58 118.92 115.566L120.521 114.786C120.543 114.775 120.568 114.77 120.592 114.77C120.617 114.77 120.641 114.775 120.663 114.786L122.17 115.436C122.202 115.444 122.231 115.461 122.253 115.485C122.276 115.509 122.29 115.54 122.296 115.572C122.301 115.605 122.296 115.639 122.282 115.668C122.268 115.698 122.245 115.724 122.217 115.741Z" fill="#6D6F74"/>
<path d="M123.826 111.512L118.796 114.463C118.716 114.518 118.623 114.553 118.526 114.564C118.429 114.575 118.331 114.563 118.24 114.528L114.182 111.988C113.851 111.824 113.454 111.534 113.92 111.341L120.165 108.26C120.325 108.191 119.979 108.866 120.099 108.92L124.011 110.67C124.339 110.808 124.23 111.276 123.826 111.512Z" fill="#D8DBE6"/>
<path d="M155.061 80.8768L118.763 92.2343C117.926 92.4956 117.37 93.1599 117.468 93.7733L123.327 130.677C123.458 131.49 124.637 131.817 125.674 131.334L159.351 115.559C160.006 115.254 160.407 114.706 160.356 114.187L157.128 81.7007C157.037 80.953 156.065 80.561 155.061 80.8768Z" fill="#293C7C" stroke="#5E66F2" stroke-width="0.75" stroke-miterlimit="10"/>
</g>
<path d="M107.401 6.59675C107.401 6.59675 112.228 0.448353 116.452 2.37312C120.675 4.2979 121.049 8.99168 119.167 12.0271C117.284 15.0626 112.957 13.1792 111.323 16.2508C109.94 18.8512 111.323 23.793 111.323 23.793" stroke="#6E72BB" stroke-width="2" stroke-linecap="round" stroke-linejoin="round"/>
<circle cx="112.228" cy="28.6386" r="1.20675" fill="#6E72BB"/>
<path d="M127.603 13.8044C127.603 13.8044 131.453 12.0431 133.009 14.0187C134.564 15.9943 133.579 18.347 131.918 19.3409C130.258 20.3347 128.642 18.3532 127.093 19.4262C125.781 20.3346 125.22 23.0573 125.22 23.0573" stroke="#6E72BB" stroke-width="2" stroke-linecap="round" stroke-linejoin="round"/>
<circle cx="124.453" cy="25.6148" r="0.653723" transform="rotate(27.2876 124.453 25.6148)" fill="#6E72BB"/>
<path d="M52.1027 106.272C52.1027 106.489 52.1672 106.701 52.2881 106.881C52.4091 107.061 52.5809 107.201 52.782 107.284C52.9831 107.367 53.2044 107.388 53.4179 107.346C53.6314 107.304 53.8275 107.2 53.9814 107.047C54.1353 106.893 54.2401 106.698 54.2826 106.486C54.325 106.274 54.3032 106.053 54.2199 105.853C54.1366 105.653 53.9956 105.482 53.8146 105.362C53.6336 105.242 53.4209 105.177 53.2032 105.177C52.9113 105.177 52.6314 105.293 52.425 105.498C52.2186 105.704 52.1027 105.982 52.1027 106.272Z" fill="white"/>
<path d="M37.7316 106.272C37.7316 106.488 37.7957 106.699 37.9157 106.878C38.0357 107.058 38.2063 107.198 38.4062 107.282C38.606 107.365 38.8262 107.388 39.0391 107.347C39.252 107.307 39.4481 107.205 39.6028 107.054C39.7575 106.903 39.864 106.71 39.9088 106.499C39.9537 106.288 39.9349 106.068 39.8548 105.868C39.7748 105.667 39.637 105.495 39.4589 105.372C39.2807 105.249 39.07 105.182 38.8533 105.177C38.707 105.175 38.5616 105.201 38.4257 105.255C38.2897 105.308 38.1658 105.389 38.0614 105.491C37.9569 105.593 37.874 105.714 37.8173 105.848C37.7607 105.983 37.7315 106.127 37.7316 106.272Z" fill="white"/>
<path d="M23.4039 106.272C23.4039 106.489 23.4686 106.701 23.5897 106.881C23.7108 107.061 23.883 107.202 24.0843 107.284C24.2856 107.367 24.5071 107.389 24.7207 107.346C24.9343 107.303 25.1304 107.199 25.2842 107.045C25.4379 106.892 25.5424 106.696 25.5843 106.483C25.6263 106.271 25.6039 106.05 25.52 105.85C25.436 105.65 25.2943 105.48 25.1128 105.36C24.9312 105.24 24.7181 105.177 24.5002 105.177C24.3559 105.177 24.213 105.206 24.0797 105.261C23.9464 105.316 23.8254 105.397 23.7235 105.498C23.6217 105.6 23.541 105.721 23.4862 105.854C23.4313 105.987 23.4034 106.129 23.4039 106.272Z" fill="#787CC8"/>
<path d="M9.04993 106.272C9.04993 106.489 9.11447 106.701 9.2354 106.881C9.35632 107.061 9.5282 107.201 9.7293 107.284C9.93039 107.367 10.1517 107.388 10.3652 107.346C10.5786 107.304 10.7747 107.2 10.9286 107.047C11.0826 106.893 11.1874 106.698 11.2298 106.486C11.2723 106.274 11.2505 106.053 11.1672 105.853C11.0839 105.653 10.9429 105.482 10.7619 105.362C10.5809 105.242 10.3681 105.177 10.1504 105.177C9.85857 105.177 9.57865 105.293 9.37226 105.498C9.16587 105.704 9.04993 105.982 9.04993 106.272Z" fill="#787CC8"/>
<path d="M37.7316 120.426C37.7316 120.642 37.7961 120.854 37.917 121.034C38.038 121.214 38.2098 121.354 38.4109 121.437C38.612 121.52 38.8333 121.542 39.0468 121.5C39.2603 121.457 39.4564 121.353 39.6103 121.2C39.7642 121.047 39.869 120.852 39.9115 120.639C39.9539 120.427 39.9321 120.207 39.8488 120.007C39.7655 119.807 39.6245 119.636 39.4435 119.515C39.2625 119.395 39.0498 119.331 38.8321 119.331C38.5402 119.331 38.2603 119.446 38.0539 119.651C37.8475 119.857 37.7316 120.135 37.7316 120.426Z" fill="#787CC8"/>
<path d="M23.4039 120.426C23.4039 120.642 23.4686 120.854 23.5897 121.034C23.7108 121.215 23.883 121.355 24.0843 121.438C24.2856 121.52 24.5071 121.542 24.7207 121.499C24.9343 121.457 25.1304 121.352 25.2842 121.198C25.4379 121.045 25.5424 120.849 25.5843 120.637C25.6263 120.424 25.6039 120.204 25.52 120.004C25.436 119.804 25.2943 119.633 25.1128 119.513C24.9312 119.393 24.7181 119.33 24.5002 119.331C24.3559 119.331 24.213 119.359 24.0797 119.414C23.9464 119.469 23.8254 119.55 23.7235 119.652C23.6217 119.753 23.541 119.874 23.4862 120.007C23.4313 120.14 23.4034 120.282 23.4039 120.426Z" fill="#787CC8"/>
<path d="M9.04993 120.426C9.04993 120.642 9.11447 120.854 9.2354 121.034C9.35632 121.214 9.5282 121.354 9.7293 121.437C9.93039 121.52 10.1517 121.542 10.3652 121.5C10.5786 121.457 10.7747 121.353 10.9286 121.2C11.0826 121.047 11.1874 120.852 11.2298 120.639C11.2723 120.427 11.2505 120.207 11.1672 120.007C11.0839 119.807 10.9429 119.636 10.7619 119.515C10.5809 119.395 10.3681 119.331 10.1504 119.331C9.85857 119.331 9.57865 119.446 9.37226 119.651C9.16587 119.857 9.04993 120.135 9.04993 120.426Z" fill="#787CC8"/>
<path d="M52.1018 134.579C52.0984 134.796 52.1601 135.01 52.279 135.192C52.3978 135.374 52.5685 135.517 52.7693 135.602C52.9701 135.688 53.1918 135.712 53.4064 135.672C53.621 135.631 53.8187 135.529 53.9743 135.376C54.1299 135.224 54.2364 135.029 54.2803 134.816C54.3242 134.603 54.3034 134.382 54.2206 134.181C54.1378 133.98 53.9968 133.808 53.8155 133.687C53.6342 133.566 53.4207 133.501 53.2023 133.501C52.9134 133.501 52.636 133.614 52.4301 133.816C52.2242 134.017 52.1063 134.292 52.1018 134.579Z" fill="#787CC8"/>
<path d="M37.7317 134.579C37.7284 134.795 37.7896 135.008 37.9075 135.189C38.0255 135.371 38.1949 135.514 38.3944 135.6C38.594 135.686 38.8146 135.712 39.0286 135.673C39.2426 135.634 39.4403 135.533 39.5967 135.383C39.7531 135.233 39.8612 135.04 39.9075 134.828C39.9537 134.617 39.9359 134.397 39.8564 134.195C39.7769 133.994 39.6392 133.82 39.4607 133.697C39.2822 133.573 39.0709 133.505 38.8535 133.501C38.7086 133.498 38.5646 133.524 38.4297 133.577C38.2948 133.629 38.1717 133.708 38.0675 133.808C37.9633 133.908 37.88 134.028 37.8223 134.16C37.7647 134.292 37.7339 134.435 37.7317 134.579Z" fill="#787CC8"/>
<path d="M23.1399 134.614C23.1365 134.831 23.1983 135.045 23.3173 135.227C23.4364 135.41 23.6073 135.552 23.8083 135.638C24.0094 135.723 24.2314 135.747 24.4461 135.706C24.6608 135.666 24.8585 135.562 25.0139 135.41C25.1694 135.257 25.2755 135.061 25.3189 134.848C25.3623 134.635 25.3409 134.414 25.2575 134.213C25.1741 134.012 25.0324 133.84 24.8505 133.72C24.6686 133.599 24.4547 133.535 24.2362 133.536C23.9476 133.536 23.6707 133.649 23.4655 133.851C23.2602 134.053 23.1433 134.327 23.1399 134.614Z" fill="#787CC8"/>
<path d="M9.05007 134.579C9.04669 134.796 9.10836 135.01 9.22722 135.192C9.34608 135.374 9.51675 135.517 9.71752 135.602C9.9183 135.688 10.1401 135.712 10.3547 135.672C10.5693 135.631 10.7669 135.529 10.9226 135.376C11.0782 135.224 11.1847 135.029 11.2286 134.816C11.2724 134.603 11.2516 134.382 11.1689 134.181C11.0861 133.98 10.9451 133.808 10.7637 133.687C10.5824 133.566 10.369 133.501 10.1506 133.501C9.86163 133.501 9.58425 133.614 9.37835 133.816C9.17244 134.017 9.05453 134.292 9.05007 134.579Z" fill="#787CC8"/>
<circle cx="18.7046" cy="40.616" r="18.7046" fill="#F9E4DD" fill-opacity="0.46"/>
<defs>
<clipPath id="clip0">
<rect width="144.207" height="115.245" fill="white" transform="translate(16.291 19.4978)"/>
</clipPath>
</defs>
</svg>
