<svg width="200" height="133" viewBox="0 0 200 133" fill="none" xmlns="http://www.w3.org/2000/svg">
<path d="M137.945 63.6006C137.945 63.6006 140.954 90.1776 191.512 79.7792L189.276 89.0367C189.276 89.0367 143.469 110.518 125.175 73.9591C111.322 46.2749 137.945 63.6006 137.945 63.6006L138.074 64.3129L137.945 63.6006Z" fill="#D99379"/>
<path d="M107.747 1.97493C107.747 1.97493 88.6428 -6.7573 80.791 12.5015C72.9392 31.7603 81.6826 31.3191 78.1688 31.7834C78.1688 31.7834 70.6661 34.7565 70.5778 39.1373C70.4894 43.5182 74.409 47.9053 71.2254 50.8468C68.0418 53.7884 67.5539 57.6965 68.5338 60.388C69.5137 63.0795 71.7154 67.2355 71.7154 67.2355L83.3291 52.3176C83.3291 52.3176 87.7702 48.1868 85.2531 43.5245C85.2531 43.5245 77.5927 36.6601 80.5324 34.4582C80.5324 34.4582 84.6938 39.5954 90.815 38.6163C96.9362 37.6371 115.914 24.0976 115.914 24.0976C115.914 24.0976 124.678 4.97743 107.747 1.97493Z" fill="#261E0F"/>
<path d="M118.328 28.867C117.405 32.1889 114.198 30.9555 114.198 30.9555C111.866 38.9272 104.231 42.104 104.231 42.104C105.131 47.9872 111.13 49.7521 111.13 49.7521C102.433 60.93 83.8379 53.282 83.8379 53.282C93.435 47.1047 88.6364 28.2787 88.6364 28.2787C84.1365 28.2787 84.1365 24.7488 84.1365 24.7488C84.1365 20.3365 88.935 20.6307 88.935 20.6307C88.935 20.6307 95.8343 22.1014 98.2336 16.2183C100.633 10.3352 105.431 8.86443 105.431 8.86443C105.431 8.86443 111.729 6.51329 115.329 12.6885C115.329 12.6885 117.127 19.7482 115.929 24.1605C115.929 24.1626 119.228 25.6334 118.328 28.867Z" fill="#D99379"/>
<path d="M107.831 31.8087C107.831 31.8087 109.032 32.6911 109.934 31.8087C110.836 30.9262 109.635 29.8651 109.635 29.8651C109.635 29.8651 109.334 29.7496 109.334 28.2788" stroke="#261E0F" stroke-width="0.641436" stroke-miterlimit="10" stroke-linecap="round"/>
<path d="M78.542 61.3524C78.542 61.3524 67.7526 59.1147 67.6769 83.8028C67.6075 106.947 24.6391 84.0696 24.6391 84.0696C24.6391 84.0696 19.3422 79.7833 11.85 83.4288C4.35774 87.0742 3.43882 88.7005 8.45397 87.7907C13.4691 86.8809 15.3616 87.0532 9.38552 91.2029C3.40939 95.3526 2.6713 96.0207 2.6713 96.0207C2.6713 96.0207 -0.0623169 98.5988 2.30122 98.872C2.30122 98.872 -0.642693 101.507 0.652626 102.07C0.652626 102.07 -0.609039 105.852 3.15495 103.679C6.91895 101.507 12.7016 98.3299 12.7016 98.3299C12.7016 98.3299 12.9329 98.1198 14.0895 97.5882C16.0892 96.6616 21.8845 97.7584 36.1687 103.627C64.0328 115.141 75.6318 105.833 79.1729 98.332C82.1546 92.016 84.863 70.9944 84.0093 66.1849C83.1556 61.3755 78.542 61.3524 78.542 61.3524Z" fill="#D99379"/>
<path d="M109.403 48.9558C109.403 48.9558 118.298 49.6282 119.633 49.7122C120.969 49.7963 125.912 49.563 129.538 53.3555C133.163 57.1481 135.941 60.7704 135.941 60.7704L138.001 63.6636C138.001 63.6636 142.207 69.7568 147.464 76.6905L138.842 89.9275C136.95 89.0871 133.291 85.7253 132.971 85.4837C131.903 84.6747 132.324 83.8343 131.903 89.5073C130.852 103.751 136.109 120.394 136.109 120.394C127.067 128.798 115.659 131.874 107.721 132.79C96.7866 134.051 84.1699 129.218 84.1699 129.218L83.7493 105.476L82.9082 92.659C82.9082 92.659 83.1185 78.5815 77.0204 78.1613C70.9223 77.7411 70.712 79.6468 67.3476 81.5231C67.3476 81.5231 60.0761 59.1651 84.8007 52.5277C84.8007 52.5277 103.89 61.8545 109.403 48.9558Z" fill="#60ABB9"/>
<path d="M143.433 77.3922C142.833 77.3922 142.346 76.9058 142.346 76.3059C142.346 75.706 142.833 75.2196 143.433 75.2196C144.034 75.2196 144.521 75.706 144.521 76.3059C144.521 76.9058 144.034 77.3922 143.433 77.3922Z" stroke="white" stroke-width="0.641436" stroke-miterlimit="10"/>
<path d="M140.63 81.4473C140.029 81.4473 139.543 80.961 139.543 80.361C139.543 79.7611 140.029 79.2748 140.63 79.2748C141.23 79.2748 141.717 79.7611 141.717 80.361C141.717 80.961 141.23 81.4473 140.63 81.4473Z" stroke="white" stroke-width="0.641436" stroke-miterlimit="10"/>
<path d="M138.038 85.5046C137.437 85.5046 136.951 85.0183 136.951 84.4183C136.951 83.8184 137.437 83.3321 138.038 83.3321C138.638 83.3321 139.125 83.8184 139.125 84.4183C139.125 85.0183 138.638 85.5046 138.038 85.5046Z" stroke="white" stroke-width="0.641436" stroke-miterlimit="10"/>
<path d="M67.3506 81.3277C67.3506 81.3277 85.1003 76.7767 83.9626 90.5579C82.825 104.339 109.638 74.3268 109.638 74.3268L75.5073 65.7648L66.928 73.749L67.3485 81.3277" fill="#60ABB9"/>
<path d="M143.311 35.2125C143.311 35.2125 146.909 28.4469 155.606 27.8586L165.027 27.8439L171.504 28.1548C171.504 28.1548 179 28.1548 178.102 34.3321C177.204 40.5094 175.402 42.2743 175.402 42.2743C175.402 42.2743 172.711 48.1574 166.705 48.1574C164.602 48.1574 162.546 48.2016 160.706 48.1574C157.695 48.0881 155.308 47.8633 155.308 47.8633C155.308 47.8633 145.41 46.6867 143.011 49.6282C140.611 52.5698 140.012 53.1581 140.012 53.1581C140.012 53.1581 137.312 56.0996 137.909 52.2756C138.507 48.4516 141.511 37.5657 143.311 35.2125Z" fill="#5C64E0" stroke="#6E72BB" stroke-opacity="0.43" stroke-width="0.481077" stroke-miterlimit="10"/>
<path d="M170.005 39.9211C170.005 39.9211 166.706 40.5094 164.306 37.862C164.306 37.862 162.506 35.1999 164.306 34.3237C164.306 34.3237 166.104 34.3237 164.605 37.862C163.106 41.4003 158.006 40.8036 156.507 39.0386C156.507 39.0386 155.008 38.1562 154.709 36.3912C154.709 36.3912 154.408 35.2146 155.308 34.6263C156.208 34.038 156.808 36.0971 156.507 36.3912C156.206 36.6854 156.507 39.0386 152.909 39.3328C149.311 39.6269 149.61 37.5679 149.61 38.1562" stroke="white" stroke-width="0.481077" stroke-miterlimit="10"/>
<path d="M194.394 78.2076L194.476 78.071C195.05 77.1108 198.472 71.3706 198.661 71.1374C198.85 70.9041 201.729 67.2776 196.85 67.6033C191.972 67.929 187.808 68.4038 187.808 68.4038C187.808 68.4038 184.494 68.0802 181.738 72.606C178.981 77.1318 171.365 88.293 171.365 88.293C171.365 88.293 167.479 93.1801 175.669 93.178L181.06 92.5624C181.06 92.5624 185.022 93.0436 188.746 86.776C191.757 81.7081 193.583 79.2414 194.18 78.4808C194.321 78.298 194.39 78.2139 194.39 78.2139" fill="#293C7C"/>
<path d="M185.161 80.5439C184.829 80.2855 183.634 77.7578 186.282 77.159C188.929 76.5602 193.082 77.1884 194.817 78.51C196.552 79.8316 197.414 82.1029 194.899 83.87C194.899 83.87 196.232 90.2321 191.166 90.8037C186.101 91.3752 180.701 89.0408 180.371 88.7824C180.371 88.7824 176.956 85.5719 182.004 84.7209C182.004 84.7209 177.744 81.6806 184.564 80.6048L185.161 80.5439Z" fill="#D99379"/>
<path d="M102.151 25.6034C101.879 25.5242 101.806 24.9534 101.989 24.3283C102.171 23.7033 102.539 23.2608 102.811 23.34C103.083 23.4192 103.156 23.9901 102.974 24.6151C102.792 25.2401 102.423 25.6826 102.151 25.6034Z" fill="#1A1A1A" stroke="#1A1A1A" stroke-width="0.160359" stroke-miterlimit="10"/>
<path d="M113.119 26.3627C112.847 26.2836 112.774 25.7127 112.956 25.0877C113.139 24.4627 113.507 24.0202 113.779 24.0994C114.051 24.1785 114.124 24.7494 113.942 25.3744C113.759 25.9994 113.391 26.4419 113.119 26.3627Z" fill="#1A1A1A" stroke="#1A1A1A" stroke-width="0.160359" stroke-miterlimit="10"/>
<path d="M111.716 126.087C111.716 116.885 108.659 108.339 103.832 100.452C99.006 92.5638 93.9783 87.9623 85.438 83.0324C82.9271 81.5829 79.197 79.0884 76.5692 79.0884C70.5407 79.3489 67.1058 83.7067 65.7296 82.3751C64.1041 80.8022 65.6363 69.2286 68.0289 60.3547C70.4216 51.4808 75.5838 45.8937 84.1241 43.2644C85.6147 42.6429 86.7058 42.3588 87.6197 42.3138C89.1226 42.2397 90.1463 42.8118 91.679 43.593C91.679 43.593 93.6498 45.2363 111.716 67.5853C129.782 89.9343 132.062 81.3299 132.765 83.9592C133.468 86.5885 134.089 97.0837 134.709 100.452C137.008 112.941 142.593 111.626 139.308 117.871C136.023 124.115 111.716 127.28 111.716 126.087Z" fill="#FFE07D"/>
<path d="M94.7942 53.7817L139.308 117.871C139.308 117.871 139.637 117.542 139.965 116.227C140.294 114.913 140.294 114.584 140.294 114.584C140.294 114.584 135.98 105.679 135.367 103.081C134.599 99.8231 133.489 90.1164 133.489 90.1164C133.489 90.1164 126.169 90.9203 115.001 77.1165C110.926 72.0804 94.7942 53.7817 94.7942 53.7817Z" fill="#D5B961"/>
<path d="M131.752 122.801L97.2626 72.5155C97.2626 72.5155 115.987 93.55 120.913 100.123C125.84 106.696 137.875 117.288 138.323 119.185C137.665 120.171 137.716 120.062 136.351 120.829C134.544 121.844 131.752 122.801 131.752 122.801Z" fill="#D4B960"/>
</svg>
