<svg width="279" height="308" viewBox="0 0 279 308" fill="none" xmlns="http://www.w3.org/2000/svg">
<path d="M148.271 89.7674C148.964 85.5662 151.206 76.298 153.638 71.6822C156.071 67.0664 159.285 61.9847 167.841 61.2215C176.396 60.4583 194.844 61.8746 197.962 62.3442C201.081 62.8139 201.906 63.3129 201.44 66.2225C200.974 69.1321 199.239 77.0905 195.71 81.1302C192.18 85.17 187.37 85.713 179.665 85.3094C171.961 84.9058 163.097 83.5775 159.486 84.0032C155.876 84.4288 154.445 86.4211 153.099 88.1346C151.752 89.8481 149.973 92.666 148.546 92.644C147.639 92.633 148.271 89.7674 148.271 89.7674Z" fill="#5C64E0"/>
<path d="M166.637 72.2142C165.008 72.2185 163.396 71.8875 161.9 71.2419L162.025 70.952C163.531 71.5973 165.155 71.9197 166.793 71.8982C168.431 71.8767 170.046 71.5119 171.535 70.8273C171.7 70.7502 171.858 70.6695 172.001 70.5888C171.52 70.2569 171.153 69.7856 170.948 69.2385C170.845 68.8984 170.832 68.5372 170.91 68.1905C170.989 67.8438 171.156 67.5235 171.395 67.2609C171.555 67.0631 171.767 66.9133 172.006 66.8279C172.246 66.7425 172.504 66.7247 172.753 66.7765C172.959 66.8298 173.151 66.9273 173.316 67.0622C173.481 67.1972 173.614 67.3664 173.707 67.5581C173.837 67.8183 173.911 68.1032 173.924 68.3941C173.937 68.685 173.888 68.9753 173.78 69.2459C173.528 69.8035 173.115 70.2735 172.595 70.5961C172.945 70.7928 173.314 70.9538 173.696 71.0768C175.165 71.545 176.718 71.6962 178.25 71.5204C179.782 71.3445 181.26 70.8457 182.586 70.0567C182.48 69.9546 182.383 69.8442 182.296 69.7265C182.023 69.392 181.857 68.9836 181.82 68.5539C181.782 68.1242 181.873 67.6929 182.083 67.3159C182.22 67.1161 182.401 66.9506 182.612 66.8322C182.823 66.7138 183.059 66.6458 183.301 66.6334C183.501 66.6145 183.702 66.6432 183.888 66.7172C184.074 66.7912 184.24 66.9084 184.372 67.0591C184.488 67.1969 184.572 67.3581 184.62 67.5316C184.667 67.7051 184.677 67.8869 184.647 68.0644C184.541 68.8569 183.848 69.5944 183.283 69.9834L183.114 70.0971C183.519 70.3915 183.963 70.6262 184.435 70.7942C186.028 71.3708 187.738 71.5488 189.416 71.3128C191.094 71.0768 192.689 70.434 194.062 69.4403L194.014 69.1248L195.17 68.945L194.741 69.3119C193.31 70.4889 191.597 71.2718 189.77 71.5833C187.944 71.8947 186.068 71.7239 184.328 71.0878C183.791 70.8992 183.288 70.6254 182.839 70.2769C181.467 71.1107 179.933 71.6405 178.339 71.8304C176.745 72.0203 175.129 71.8659 173.6 71.3776C173.145 71.2345 172.709 71.0362 172.302 70.7869C172.099 70.9075 171.889 71.0166 171.674 71.1135C170.096 71.8461 168.376 72.222 166.637 72.2142ZM172.459 67.0591C172.299 67.0667 172.143 67.1075 171.999 67.1789C171.856 67.2502 171.729 67.3506 171.627 67.4737C171.429 67.6966 171.292 67.9663 171.227 68.2571C171.163 68.548 171.174 68.8504 171.26 69.1358C171.464 69.6639 171.833 70.1118 172.313 70.4127C172.833 70.1155 173.248 69.6643 173.501 69.1211C173.589 68.8929 173.629 68.649 173.619 68.4046C173.608 68.1602 173.547 67.9207 173.439 67.7012C173.369 67.5511 173.267 67.4181 173.14 67.3116C173.014 67.2051 172.865 67.1277 172.705 67.0847C172.632 67.0672 172.557 67.0585 172.481 67.0591H172.459ZM183.396 66.9453H183.323C183.13 66.9539 182.941 67.0071 182.772 67.1006C182.603 67.1942 182.457 67.3256 182.347 67.4847C182.172 67.807 182.098 68.1744 182.134 68.5393C182.17 68.9043 182.314 69.2501 182.549 69.5321C182.642 69.663 182.747 69.7858 182.861 69.899L183.107 69.7375C183.653 69.3706 184.248 68.6845 184.336 68.0351C184.357 67.9172 184.356 67.7963 184.33 67.6791C184.305 67.562 184.257 67.451 184.189 67.3524C184.121 67.2539 184.034 67.1698 183.933 67.105C183.832 67.0402 183.72 66.9959 183.602 66.9747C183.534 66.9672 183.465 66.9672 183.396 66.9747V66.9453Z" fill="white"/>
<path d="M172.155 81.4568C171.292 81.4648 170.438 81.2832 169.653 80.9248L169.788 80.6386C171.172 81.288 172.903 81.3064 174.664 80.6936C176.083 80.1452 177.413 79.391 178.612 78.4554C178.381 78.2145 178.191 77.9383 178.047 77.6372C177.867 77.2811 177.79 76.8818 177.825 76.4843C177.86 76.0869 178.006 75.7071 178.245 75.388C178.394 75.2208 178.576 75.0872 178.781 74.996C178.985 74.9049 179.207 74.8584 179.43 74.8597C179.617 74.8548 179.802 74.8903 179.974 74.9637C180.146 75.0372 180.299 75.1469 180.425 75.2853C180.615 75.5506 180.723 75.8659 180.735 76.1921C180.747 76.5183 180.664 76.8409 180.494 77.1199C180.166 77.6344 179.73 78.0724 179.218 78.4041L179.1 78.4958C179.314 78.6844 179.542 78.8561 179.783 79.0095C180.9 79.7258 182.174 80.1619 183.496 80.2807C184.818 80.3995 186.15 80.1975 187.377 79.6919L187.502 79.9855C186.226 80.5101 184.843 80.7194 183.469 80.5955C182.095 80.4716 180.771 80.0181 179.61 79.2737C179.337 79.0989 179.079 78.9013 178.84 78.6829C177.604 79.6507 176.231 80.4297 174.767 80.9945C173.928 81.2928 173.045 81.449 172.155 81.4568ZM179.43 75.1789C179.253 75.1766 179.077 75.2125 178.914 75.284C178.751 75.3555 178.606 75.461 178.487 75.5935C178.286 75.8655 178.165 76.1883 178.138 76.5255C178.111 76.8627 178.178 77.2007 178.333 77.5015C178.469 77.7833 178.649 78.0421 178.865 78.2683L179.027 78.1472C179.504 77.8422 179.909 77.438 180.215 76.9621C180.355 76.7413 180.426 76.4843 180.42 76.2233C180.414 75.9622 180.332 75.7087 180.182 75.4944C180.088 75.3893 179.972 75.3064 179.842 75.2519C179.712 75.1973 179.571 75.1723 179.43 75.1789Z" fill="white"/>
<path d="M113.714 1.80518H6.86816V172.251H113.714V1.80518Z" fill="#8E92D8"/>
<path d="M108.882 12.1742H11.7031V169.316H108.882V12.1742Z" fill="#DFE8FB"/>
<path d="M113.714 0H6.86816V132.57H113.714V0Z" fill="#A7B7EA"/>
<path d="M43.7552 87.7035H17.8086V126.934H43.7552V87.7035Z" fill="#DFE8FB"/>
<path d="M73.2645 87.7035H47.3179V126.934H73.2645V87.7035Z" fill="#DFE8FB"/>
<path d="M102.773 87.7035H76.8265V126.934H102.773V87.7035Z" fill="#DFE8FB"/>
<path d="M107.61 4.5094H11.4473V89.7325H107.61V4.5094Z" fill="#A7B7EA" stroke="#8E92D8" stroke-miterlimit="10"/>
<path d="M44.2653 9.69385H17.2988V85.4469H44.2653V9.69385Z" fill="#DFE8FB"/>
<path d="M73.7746 9.69385H46.8081V85.4469H73.7746V9.69385Z" fill="#DFE8FB"/>
<path d="M102.777 9.69385H75.8104V85.4469H102.777V9.69385Z" fill="#DFE8FB"/>
<path d="M26.608 152.655C26.608 152.655 21.4715 146.274 26.2998 143.265C31.1281 140.257 29.1249 152.655 29.1249 152.655H32.148C32.148 152.655 27.5692 138 31.6381 138C35.7069 138 37.7615 140.48 36.2279 145.338C34.6943 150.196 34.3017 152.677 34.3017 152.677L26.608 152.655Z" fill="#7EA881"/>
<path d="M36.7303 169.114H25.0264L22.4839 156.037H38.7665L36.7303 169.114Z" fill="#E39B66"/>
<path d="M41.0563 152.203H20.1948V157.164H41.0563V152.203Z" fill="#E39B66"/>
<path d="M119.056 168.417H0V179.238H119.056V168.417Z" fill="#A8B7EA"/>
<path d="M76.0566 31.5L103.057 22V85H76.0566V31.5Z" fill="white" fill-opacity="0.5"/>
<path d="M198.668 306.647L198.672 306.646C200.884 306.195 202.312 304.037 201.861 301.825L187.287 230.249C186.836 228.037 184.678 226.609 182.466 227.059L182.463 227.06C180.251 227.51 178.823 229.669 179.273 231.881L193.848 303.457C194.298 305.669 196.456 307.097 198.668 306.647Z" fill="#7B939A"/>
<path d="M184.712 258.864L194.321 251.383L183.571 253.034L184.712 258.864Z" fill="#4F6065"/>
<path d="M119.337 226.973L119.334 226.972C117.122 226.521 114.963 227.949 114.513 230.161L99.9386 301.738C99.4882 303.95 100.916 306.108 103.128 306.559L103.132 306.559C105.343 307.01 107.502 305.582 107.952 303.37L122.527 231.793C122.977 229.581 121.549 227.423 119.337 226.973Z" fill="#7B939A"/>
<path d="M151.013 205.559H151.009C148.752 205.559 146.922 207.389 146.922 209.646V282.691C146.922 284.949 148.752 286.779 151.009 286.779H151.013C153.27 286.779 155.1 284.949 155.1 282.691V209.646C155.1 207.389 153.27 205.559 151.013 205.559Z" fill="#7B939A"/>
<path d="M109.419 256.516L121.159 253.302L110.6 250.693L109.419 256.516Z" fill="#4F6065"/>
<path d="M241.606 212.057C242.582 257.279 162.951 259.521 118.543 254.12C83.879 249.904 58.9634 218.21 52.895 178.928C45.9828 134.216 57.7233 99.337 102.469 98.372C147.216 97.407 240.633 166.831 241.606 212.057Z" fill="#B4D1D9"/>
<path d="M71.6467 149.894C71.6467 149.894 80.7016 143.414 91.5762 142.457C109.114 140.905 132.774 143.884 137.247 146.794C142.097 151.931 141.081 184.879 141.081 184.879C141.081 184.879 134.921 191.517 120.902 194.922C112.295 196.988 103.49 198.117 94.6398 198.29C94.6398 198.29 80.2833 188.519 75.0111 175.193C69.405 161.001 69.6655 153.512 71.6467 149.894Z" fill="#577E95"/>
<path d="M127.197 100.273C127.197 100.273 134.11 102.25 137.533 105.266C146.969 110.917 155.107 127.057 157.033 131.453C158.959 135.849 162.067 143.128 166.348 145.363C170.63 147.597 180.954 144.262 188.766 138.498C194.648 134.094 200.22 129.289 205.441 124.118C208.009 121.601 211.282 118.849 217.673 119.066C224.064 119.282 227.917 119.913 227.975 121.139C228.034 122.364 224.673 122.258 223.389 122.39C222.105 122.522 219.581 122.687 219.566 123.704C219.551 124.72 223.969 125.869 227.385 127.127C230.8 128.386 235.475 129.949 235.412 131.013C235.393 131.321 235.299 131.62 235.141 131.885C234.982 132.15 234.761 132.373 234.499 132.535C234.499 132.535 237.768 133.919 237.489 135.339C238.722 136.072 238.589 138.457 236.443 138.193C234.297 137.929 224.945 135.317 222.806 134.917C220.667 134.517 216.936 134.946 210.885 139.852C204.835 144.757 178.694 167.891 165.662 163.385C158.728 157.383 124.721 116.765 127.197 100.273Z" fill="#F7E0D7"/>
<path d="M201.192 238.588L223.121 243.189C223.121 243.189 219.049 253.966 218.128 256.673C217.207 259.381 216.591 263.069 219.537 266.243C222.483 269.416 225.506 273.783 227.946 276.92C230.386 280.057 231.321 282.464 230.415 284.566C229.509 286.669 224.024 287.435 217.163 283.59C210.302 279.745 200.939 272.726 198.408 270.341C195.876 267.956 196.03 265.479 196.727 262.107C197.424 258.735 201.299 239.443 201.192 238.588Z" fill="#F7E0D7"/>
<path d="M241.554 255.815L259.789 249.21C259.789 249.21 261.462 262.089 261.95 265.024C262.438 267.96 263.318 270.979 267.574 275.643C276.684 285.15 279.968 288.793 278.581 292.279C277.194 295.764 271.401 293.827 268.741 292.528C266.081 291.229 255.841 286.148 253.137 284.265C250.433 282.383 247.113 277.881 246.313 272.047C245.513 266.213 243.183 259.939 241.554 255.815Z" fill="#F7E0D7"/>
<path d="M87.1885 110.653L85.1999 106.752L94.5447 102.555L118.18 100.592C121.178 100.321 124.188 100.215 127.198 100.273C128.522 103.909 133.564 112.748 137.588 114.861C140.813 116.553 146.265 120.761 148.485 127.736C151.171 133.133 151.053 140.241 153.732 145.579C155.672 149.45 159.341 157.838 162.39 161.426C147.861 173.769 132.672 183.544 116.584 173.901C100.496 164.259 87.1885 110.653 87.1885 110.653Z" fill="white"/>
<path d="M123.125 69.1437C125.411 69.1217 126.317 70.6333 126.332 71.9726C126.36 72.826 126.069 73.6592 125.515 74.3092C124.961 74.9592 124.185 75.3794 123.338 75.4876C122.77 73.0513 123.125 69.1437 123.125 69.1437Z" fill="#F7E0D7"/>
<path d="M97.5601 92.3106C97.5601 92.3106 91.4073 98.4675 86.4873 94.1929C81.5673 89.9184 88.186 85.2439 90.347 84.2642C86.8799 81.1051 81.3508 74.5997 82.3598 63.9261C84.2456 47.0187 94.1443 42.6231 100.822 42.9753C106.365 38.7705 119.071 41.3536 124.284 50.0091C129.498 58.6646 128.419 67.0706 123.808 69.6684C116.881 76.1004 97.5601 92.3106 97.5601 92.3106Z" fill="#784737"/>
<path d="M92.8199 71.1067C88.4466 71.9946 87.2945 75.029 87.7421 78.0414C88.1898 81.0537 93.1905 82.5214 94.3792 81.0317C95.7294 87.3059 99.3212 94.314 92.3209 103.472C97.1566 103.659 102.924 107.538 107.848 108.869C112.771 110.201 117.09 109.647 119.273 107.596C122.168 104.03 120.74 101.359 119.566 101.161C118.392 100.962 112.115 99.693 113.571 92.8684C117.581 92.0575 122.355 84.389 123.342 78.1918C124.329 71.9946 125.726 64.1537 120.506 56.9108C117.27 52.4307 108.934 51.7079 104.641 51.9281C104.017 56.1769 101.097 60.169 98.4444 62.4365C95.3405 65.1113 92.7502 68.8612 92.8199 71.1067Z" fill="#F7E0D7"/>
<path d="M118.007 171.458L111.403 178.715C111.403 178.715 114.877 188.358 118.421 193.916C121.966 199.475 131.629 220.199 157.367 215.396C183.104 210.593 205.503 197.05 209.099 196.316C203.452 211.044 192.64 236.82 192.64 236.82L223.092 243.208L227.429 233.466L230.72 260.067L259.788 249.196C259.788 249.196 259.385 226.92 258.361 215.605C257.338 204.289 257.297 192.889 244.749 186.696C250.451 170.551 244.529 164.622 239.576 161.569C234.623 158.517 219.199 158.972 195.861 162.835C172.523 166.699 118.007 171.458 118.007 171.458Z" fill="#579884"/>
<path d="M106.747 71.3782C106.989 70.1343 107.213 69.8004 107.638 69.8224C108.064 69.8445 108.218 70.4756 108.108 71.4846C107.998 72.4936 107.635 73.099 107.283 73.099C106.93 73.099 106.563 72.2698 106.747 71.3782Z" fill="#191919"/>
<path d="M118.939 71.5946C119.214 70.6297 119.449 70.127 119.893 70.1563C120.337 70.1857 120.381 71.081 120.231 71.9616C120.08 72.8421 119.743 73.4292 119.358 73.3852C118.972 73.3411 118.627 72.699 118.939 71.5946Z" fill="#191919"/>
<path d="M92.8936 193.135L92.7358 192.878C92.7358 192.878 93.5357 192.364 94.4419 190.75C95.2857 189.253 96.3974 186.479 96.9331 181.75C97.3843 177.714 95.6636 173.219 91.6682 167.968C97.0541 175.046 94.4932 169.348 80.5917 156.308C79.0471 154.858 77.7116 153.604 76.7907 152.613L77.0109 152.407C77.9244 153.391 79.2562 154.642 80.8008 156.077C84.235 159.298 88.5056 163.308 91.9066 167.774C93.5758 169.894 94.9655 172.219 96.0415 174.694C97.0798 177.211 97.4797 179.592 97.2339 181.775C96.6909 186.578 95.5536 189.4 94.6914 190.919C93.7448 192.596 92.9303 193.113 92.8936 193.135Z" fill="white"/>
<path d="M116.121 80.3418L116.03 80.052C116.411 79.94 116.753 79.723 117.017 79.4259C117.281 79.1288 117.456 78.7634 117.523 78.3715C117.611 77.8725 117.299 77.5129 116.998 77.168C116.771 76.9622 116.613 76.6921 116.543 76.3938L116.848 76.3718C116.914 76.6005 117.041 76.8071 117.215 76.9699C117.53 77.3368 117.923 77.7808 117.813 78.4375C117.736 78.8808 117.536 79.2937 117.238 79.63C116.939 79.9664 116.552 80.2129 116.121 80.3418Z" fill="#191919"/>
<path d="M227.319 233.385C227.436 233.129 239.092 207.566 244.603 186.666L244.893 186.743C239.39 207.657 227.711 233.257 227.594 233.51L227.319 233.385Z" fill="#4F8273"/>
<path d="M278.581 292.268C279.821 289.149 277.326 285.905 270.27 278.457C271.767 280.035 271.393 281.62 270.692 282.787C269.992 283.953 264.653 284.188 257.932 280.552C253.713 278.218 249.808 275.357 246.312 272.036C247.112 277.87 250.433 282.368 253.137 284.254C255.841 286.14 266.084 291.226 268.741 292.517C271.397 293.809 277.197 295.757 278.581 292.268Z" fill="#D45157"/>
<path d="M203.031 265.41C200.988 263.56 199.061 261.588 197.26 259.502C197.025 260.662 196.838 261.572 196.731 262.096C196.034 265.468 195.88 267.934 198.408 270.33C200.936 272.726 210.303 279.745 217.167 283.59C224.032 287.436 229.509 286.669 230.416 284.566C231.322 282.464 230.386 280.053 227.946 276.92C226.556 275.129 224.971 272.939 223.324 270.8C223.026 272.381 222.296 273.823 220.719 274.384C216.529 275.881 206.582 268.528 203.031 265.41Z" fill="#D55157"/>
<path d="M214.507 184.483L209.132 196.298L200.096 200.382L214.507 184.483Z" fill="#4F8273"/>
<path d="M200.213 244.448L211.84 240.823L201.2 238.588L200.213 244.448Z" fill="#DCCBC4"/>
<path d="M241.628 255.995L251.262 252.392L243.315 260.515L241.628 255.995Z" fill="#DCCBC4"/>
<path d="M161.318 161.76L165.604 159.137C165.604 159.137 177.021 152.477 182.114 149.179C187.206 145.88 188.527 145.088 190.978 145.631C193.429 146.174 198.844 148.162 201.493 149.153C204.142 150.144 205.081 151.435 201.398 154.055C197.714 156.675 181.806 166.897 181.806 166.897L167.923 167.899L161.318 161.76Z" fill="#293C7C"/>
<path d="M85.6728 106.727C82.2864 106.554 74.5706 115.166 77.1352 126.045C79.6998 136.924 91.9246 165.349 104.571 174.246C117.218 183.144 125.389 186.721 147.824 180.594C155.999 178.642 158.625 175.512 167.324 174.298C176.023 173.083 181.608 172.147 182.98 168.827C186.388 166.372 187.305 164.545 186.916 163.43C182.587 165.066 169.937 166.919 166.161 162.63C164.639 160.461 165.362 159.239 166.29 158.737C167.218 158.234 172.468 155.086 172.468 155.086C172.468 155.086 168.737 152.077 163.615 154.891C158.493 157.706 153.306 163.389 148.998 165.165C144.691 166.941 130.778 170.65 119.218 161.606C107.657 152.562 104.058 135.827 103.074 131.005C102.091 126.184 98.492 107.387 85.6728 106.727Z" fill="#F7E0D7"/>
<path d="M275.048 197.226C274.156 197.593 273.797 197.648 273.037 196.47C272.278 195.292 271.882 194.316 273.727 193.942" fill="white"/>
<path d="M112.409 192.815C112.409 193.174 112.516 193.525 112.716 193.823C112.917 194.122 113.201 194.354 113.535 194.491C113.868 194.629 114.235 194.665 114.589 194.595C114.942 194.525 115.267 194.352 115.522 194.098C115.778 193.844 115.951 193.521 116.022 193.169C116.092 192.817 116.056 192.452 115.918 192.121C115.78 191.789 115.546 191.506 115.246 191.306C114.946 191.107 114.593 191 114.233 191C113.749 191 113.285 191.192 112.943 191.532C112.601 191.872 112.409 192.334 112.409 192.815Z" fill="white"/>
<path d="M88.5919 192.815C88.5919 193.172 88.6981 193.522 88.897 193.819C89.0959 194.117 89.3787 194.35 89.7099 194.488C90.0412 194.626 90.4061 194.664 90.7589 194.597C91.1117 194.53 91.4367 194.36 91.6932 194.11C91.9496 193.86 92.126 193.54 92.2003 193.19C92.2746 192.84 92.2435 192.477 92.1108 192.145C91.9782 191.812 91.7499 191.527 91.4546 191.323C91.1593 191.12 90.8102 191.007 90.451 191C90.2086 190.996 89.9676 191.039 89.7422 191.128C89.5168 191.217 89.3116 191.35 89.1385 191.519C88.9654 191.688 88.8279 191.89 88.734 192.112C88.6401 192.335 88.5918 192.574 88.5919 192.815Z" fill="white"/>
<path d="M64.8453 192.815C64.8453 193.174 64.9524 193.525 65.1532 193.824C65.3539 194.122 65.6392 194.355 65.9729 194.492C66.3066 194.629 66.6737 194.665 67.0277 194.594C67.3817 194.524 67.7066 194.35 67.9614 194.096C68.2162 193.841 68.3894 193.517 68.459 193.165C68.5286 192.812 68.4914 192.447 68.3523 192.116C68.2132 191.784 67.9783 191.501 67.6774 191.303C67.3765 191.104 67.0232 190.999 66.6622 191C66.423 191 66.1861 191.047 65.9653 191.139C65.7444 191.23 65.5437 191.364 65.3749 191.532C65.2061 191.701 65.0724 191.901 64.9816 192.121C64.8907 192.341 64.8444 192.577 64.8453 192.815Z" fill="#787CC8"/>
<path d="M88.4088 192.815C88.4088 193.174 88.5159 193.525 88.7166 193.824C88.9174 194.122 89.2026 194.355 89.5363 194.492C89.87 194.629 90.2371 194.664 90.5911 194.594C90.9451 194.523 91.2701 194.35 91.5249 194.095C91.7797 193.841 91.9529 193.517 92.0224 193.164C92.092 192.812 92.0549 192.447 91.9158 192.115C91.7766 191.784 91.5418 191.501 91.2409 191.302C90.94 191.104 90.5867 190.999 90.2257 191C89.9865 191 89.7496 191.047 89.5287 191.138C89.3078 191.23 89.1072 191.363 88.9384 191.532C88.7696 191.701 88.6359 191.901 88.545 192.121C88.4541 192.341 88.4078 192.577 88.4088 192.815Z" fill="#787CC8"/>
<path d="M41.0567 192.815C41.0567 193.174 41.1636 193.525 41.364 193.823C41.5645 194.122 41.8493 194.354 42.1826 194.491C42.5159 194.629 42.8826 194.665 43.2364 194.595C43.5902 194.525 43.9152 194.352 44.1703 194.098C44.4254 193.844 44.5991 193.521 44.6695 193.169C44.7399 192.817 44.7038 192.452 44.5657 192.121C44.4277 191.789 44.1939 191.506 43.8939 191.306C43.594 191.107 43.2413 191 42.8806 191C42.3969 191 41.9329 191.192 41.5909 191.532C41.2488 191.872 41.0567 192.334 41.0567 192.815Z" fill="#787CC8"/>
<path d="M112.409 216.272C112.409 216.631 112.516 216.982 112.716 217.28C112.917 217.578 113.201 217.811 113.535 217.948C113.868 218.086 114.235 218.122 114.589 218.052C114.942 217.982 115.267 217.809 115.522 217.555C115.778 217.301 115.951 216.978 116.022 216.626C116.092 216.274 116.056 215.909 115.918 215.577C115.78 215.246 115.546 214.962 115.246 214.763C114.946 214.564 114.593 214.457 114.233 214.457C113.749 214.457 113.285 214.648 112.943 214.989C112.601 215.329 112.409 215.791 112.409 216.272Z" fill="#787CC8"/>
<path d="M88.5919 216.272C88.5919 216.631 88.6988 216.982 88.8993 217.28C89.0997 217.578 89.3845 217.811 89.7178 217.948C90.0511 218.086 90.4178 218.122 90.7717 218.052C91.1255 217.982 91.4505 217.809 91.7055 217.555C91.9606 217.301 92.1343 216.978 92.2047 216.626C92.2751 216.274 92.239 215.909 92.1009 215.577C91.9629 215.246 91.7291 214.962 91.4291 214.763C91.1292 214.564 90.7766 214.457 90.4158 214.457C89.9321 214.457 89.4682 214.648 89.1261 214.989C88.784 215.329 88.5919 215.791 88.5919 216.272Z" fill="#787CC8"/>
<path d="M64.8454 216.272C64.8454 216.631 64.9525 216.982 65.1533 217.281C65.354 217.579 65.6393 217.812 65.973 217.949C66.3067 218.086 66.6738 218.122 67.0278 218.051C67.3818 217.981 67.7067 217.807 67.9615 217.553C68.2163 217.298 68.3895 216.974 68.4591 216.622C68.5287 216.269 68.4915 215.904 68.3524 215.573C68.2133 215.241 67.9784 214.958 67.6775 214.76C67.3767 214.561 67.0233 214.456 66.6623 214.457C66.4231 214.457 66.1863 214.504 65.9654 214.596C65.7445 214.687 65.5439 214.821 65.375 214.989C65.2062 215.158 65.0726 215.358 64.9817 215.578C64.8908 215.798 64.8445 216.034 64.8454 216.272Z" fill="#787CC8"/>
<path d="M112.409 239.729C112.403 240.089 112.505 240.442 112.702 240.745C112.899 241.047 113.182 241.284 113.515 241.425C113.848 241.567 114.215 241.607 114.571 241.54C114.927 241.473 115.254 241.303 115.512 241.05C115.77 240.797 115.947 240.474 116.019 240.121C116.092 239.769 116.057 239.402 115.92 239.069C115.783 238.736 115.549 238.451 115.249 238.25C114.948 238.049 114.595 237.942 114.233 237.942C113.754 237.942 113.294 238.13 112.953 238.464C112.612 238.798 112.416 239.252 112.409 239.729Z" fill="#787CC8"/>
<path d="M73.5566 32L47.0566 42V85.5H73.5566V32Z" fill="white" fill-opacity="0.5"/>
<path d="M44.0566 43L17.0566 51.5V85H44.0566V43Z" fill="#EFF4FD"/>
</svg>
