<svg width="124" height="132" viewBox="0 0 124 132" fill="none" xmlns="http://www.w3.org/2000/svg">
<path d="M104.779 57.0537C105.602 56.7276 107.615 58.5835 107.615 58.5835C107.615 58.5835 120.294 64.0088 122.472 72.8495C124.651 81.6902 121.762 94.8776 116.354 101.73C112.311 109.379 101.544 127.905 84.1167 128.208C66.6898 128.51 64.8334 116.323 64.8334 116.323H51.2084C51.2084 116.323 33.5149 92.4283 45.0282 74.99C56.5415 57.5518 60.2708 55.7196 66.1843 55.4231C69.9363 55.2126 73.6746 54.8049 77.3839 54.2017C77.3839 54.2017 84.2505 65.1354 104.779 57.0537Z" fill="#556898" stroke="#556898" stroke-width="0.910424" stroke-miterlimit="10"/>
<path d="M118.513 97.9797L103.582 91.7182C102.924 91.4423 102.169 91.7884 101.942 92.4646C100.765 95.962 97.2484 105.901 93.497 111.53C91.4131 114.657 88.0658 117.055 85.1591 117.263C77.8627 117.784 68.4822 103.191 68.4822 103.191C64.3609 103.191 59.176 104.219 60.1426 108.924C60.1426 108.924 61.9336 114.232 63.7912 117.263C68.0945 124.284 74.6222 130.251 79.9466 130.813C85.2711 131.375 88.5051 130.664 93.497 128.729C100.254 126.109 104.07 123.293 108.09 117.263C113.301 109.445 118.513 97.9797 118.513 97.9797Z" fill="#DAAC9C" stroke="#DAAC9C" stroke-width="1.2139"/>
<path d="M48.3942 85.5663C48.3942 85.5663 51.5019 83.1234 57.4155 85.8746C63.329 88.6259 68.2808 100.653 69.5239 103.713C69.5239 103.713 67.6857 107.286 60.2154 110.345L53.0587 100.858L48.3942 85.5663Z" fill="#DAAC9C"/>
<path d="M70.1795 32.6702C71.1384 36.127 74.4652 34.8522 74.4652 34.8522C76.8803 43.1533 84.8005 46.4382 84.8005 46.4382C83.8712 52.5573 77.6439 54.4191 77.6439 54.4191C86.6711 66.0466 106.01 58.0716 106.01 58.0716C97.332 47.9917 100.978 32.0891 100.978 32.0891C105.649 32.0891 105.649 28.4188 105.649 28.4188C105.649 23.8295 100.671 24.1378 100.671 24.1378C98.2652 21.0905 96.315 17.709 94.8813 14.0994C92.3952 7.98029 83.1016 7.98029 83.1016 7.98029C78.9393 9.25046 75.4261 12.0793 73.2931 15.8782C73.2931 15.8782 71.4226 23.2188 72.6656 27.8081C72.6656 27.7784 69.2679 29.3082 70.1795 32.6702Z" fill="#DAAC9C"/>
<path d="M81.5027 35.1726C81.5027 35.1726 80.0879 36.3585 79.0284 35.1726C77.9688 33.9867 79.3835 32.5459 79.3835 32.5459C79.3835 32.5459 79.7328 32.3858 79.7328 30.3995" stroke="#261E0F" stroke-width="1.2139" stroke-miterlimit="10" stroke-linecap="round"/>
<path d="M57.2214 83.5112C57.2214 83.5112 57.5292 74.6171 61.5781 69.7432C57.4926 73.4151 54.2078 77.8923 51.9294 82.8945L57.2214 83.5112Z" fill="#323E5A" stroke="#323E5A" stroke-width="0.910424" stroke-miterlimit="10"/>
<path d="M44.0439 39.7088C42.6927 37.4964 40.8265 35.6449 38.6049 34.3128C36.3833 32.9807 33.8725 32.2077 31.2875 32.0599H21.5144L14.7959 32.386C14.7959 32.386 7.01772 32.3861 7.95299 38.8076C8.88826 45.2291 10.7529 47.0672 10.7529 47.0672C10.7529 47.0672 13.5409 53.1863 19.7741 53.1863C21.9525 53.1863 24.0894 53.2278 25.9955 53.1863C29.1209 53.1092 31.5953 52.8779 31.5953 52.8779C31.5953 52.8779 41.8655 51.6565 44.3517 54.716C46.8378 57.7756 47.4653 58.3863 47.4653 58.3863C47.4653 58.3863 50.2652 61.4459 49.6437 57.4673C49.0221 53.4887 45.9085 42.1517 44.0439 39.7088Z" fill="#5C64E0" stroke="#696DAC" stroke-width="0.910424" stroke-miterlimit="10"/>
<path d="M0.797588 74.2768L42.1745 64.1791L59.6014 122.305L17.2892 121.996L0.797588 74.2768Z" fill="#293C7C" stroke="#5E66F2" stroke-width="0.910424" stroke-miterlimit="10"/>
<path d="M29.1088 66.0172C29.1088 66.0172 28.7951 71.828 23.509 73.9685C18.223 76.109 11.9661 69.9899 11.9661 69.9899L29.1088 66.0172Z" fill="#557DCB" stroke="#6B98F2" stroke-width="0.910424" stroke-miterlimit="10"/>
<path d="M76.7678 5.11078C86.381 -2.23571 96.2073 0.141968 93.7034 1.34563C89.3348 3.42684 95.3135 2.24096 100.57 4.52377C104.429 6.20771 108.78 11.6034 108.171 13.2577C106.466 17.8886 110.254 18.8491 106.626 27.8973C105.853 29.9806 104.823 31.9587 103.559 33.7852C100.801 38.0721 100.416 40.9004 100.416 40.9004C100.191 40.0703 100.86 31.8226 100.86 31.8226C105.525 31.8226 105.755 28.3895 105.755 28.3895C105.927 24.0255 100.759 24.0729 100.759 24.0729C99.096 23.9009 99.7945 29.4093 98.51 29.1425C97.2255 28.8757 97.0479 28.929 97.2018 27.8262C99.4689 11.5026 87.778 20.118 79.4434 12.6292C76.0397 9.56373 73.7193 16.507 73.7193 16.507C72.6501 18.9002 72.1167 21.4987 72.1566 24.1203C72.1566 25.3062 72.9202 28.4547 72.9024 29.2551C72.9024 30.2631 71.689 26.0889 71.8547 26.8123C71.8547 26.8123 67.9005 16.1394 70.2032 14.0641C72.346 12.143 70.9194 4.71944 76.7146 5.09892" fill="#40271E"/>
<path d="M86.104 28.256C85.9147 27.6052 85.9903 27.0108 86.2728 26.9283C86.5553 26.8459 86.9377 27.3067 87.127 27.9575C87.3162 28.6083 87.2407 29.2027 86.9582 29.2852C86.6757 29.3676 86.2933 28.9068 86.104 28.256Z" fill="#1A1A1A" stroke="#1A1A1A" stroke-width="0.303475" stroke-miterlimit="10"/>
<path d="M74.7259 29.044C74.5366 28.3931 74.6122 27.7987 74.8947 27.7163C75.1772 27.6339 75.5596 28.0947 75.7489 28.7455C75.9381 29.3963 75.8626 29.9907 75.5801 30.0731C75.2976 30.1556 74.9151 29.6948 74.7259 29.044Z" fill="#1A1A1A" stroke="#1A1A1A" stroke-width="0.303475" stroke-miterlimit="10"/>
<path d="M36.5468 45.6844C35.4833 45.8219 34.4022 45.7036 33.3939 45.3392C32.3856 44.9748 31.4794 44.375 30.751 43.59C30.751 43.59 28.9241 40.8881 30.751 40C30.751 40 32.5822 40 31.0576 43.59C29.533 47.1799 24.3378 46.5767 22.8259 44.7838C22.3568 44.4803 21.9532 44.0865 21.6388 43.6254C21.3244 43.1643 21.1054 42.6453 20.9947 42.0987C20.9947 42.0987 20.6881 40.9006 21.6037 40.3058C22.5193 39.711 23.1282 41.7971 22.8259 42.0987C22.5235 42.4003 22.8259 44.7838 19.1636 45.0812C15.5013 45.3786 15.8037 43.2925 15.8037 43.8874" stroke="white" stroke-width="0.543684" stroke-miterlimit="10" stroke-linecap="round"/>
</svg>
