<svg width="81" height="84" viewBox="0 0 81 84" fill="none" xmlns="http://www.w3.org/2000/svg">
<path d="M33.8741 7.29799C33.8741 7.29799 35.4492 5.72699 37.3445 6.98117C39.2399 8.23534 37.8197 8.55216 40.6653 8.55216C41.9018 8.55216 42.8704 9.65709 43.028 10.9086C43.2485 12.5582 42.5554 14.4879 43.9835 15.0116C46.5141 15.9594 45.2488 16.7475 45.4063 17.368C45.5638 17.9886 49.6748 19.104 48.3911 21.7773C47.9343 22.7277 48.8846 23.8327 49.3571 24.4637C49.8297 25.0947 49.8323 26.9851 49.1996 27.6057C48.567 28.2262 48.4121 28.8756 48.483 29.7396C48.5539 30.6037 48.3806 31.4703 46.7346 32.0594C45.0887 32.6486 45.0913 33.9132 44.4586 34.8584C43.826 35.8036 43.826 35.8036 42.2457 35.8036C40.6653 35.8036 39.5969 38.6419 38.5495 39.2729C37.5021 39.9039 17.8503 37.681 17.8503 37.681C17.8503 37.681 17.0864 37.1704 15.8342 38.0659C14.5821 38.9613 13.2957 38.147 12.755 37.1337C12.2142 36.1205 11.1064 36.2775 10.4737 36.5917C9.84107 36.9059 8.05073 36.0157 8.15574 34.2536C8.26074 32.4915 6.52291 32.4941 5.89025 32.4941C5.2576 32.4941 2.88711 32.4941 3.35963 30.1376C3.83215 27.7811 2.10482 28.1555 1.62704 27.8073C1.14927 27.459 0.356482 25.2492 1.93681 24.304C3.51714 23.3588 0.989138 21.4657 1.30678 20.3765C1.62442 19.2873 2.88186 18.4834 2.7296 16.7501C2.57734 15.0168 1.62179 14.069 3.67727 12.4927C5.73275 10.9165 5.82463 12.5451 6.33127 10.5473C6.83792 8.54954 6.68829 6.94189 9.21892 6.48631C11.7495 6.03072 10.6365 7.44723 13.3246 4.91531C16.0127 2.3834 16.1703 2.70807 17.5931 2.86517C19.0159 3.02227 20.9086 0.348964 23.9091 1.15017C26.9097 1.95138 25.332 1.93567 28.1093 1.65812C30.5717 1.39629 30.5586 3.0406 31.5063 3.82871C32.4539 4.61683 34.197 4.93626 33.8741 7.29799Z" fill="#261E0F" stroke="#261E0F" stroke-width="0.484199" stroke-miterlimit="10"/>
<path d="M18.614 35.2826C18.614 35.2826 31.4089 33.5466 32.8396 34.6489L33.2596 36.9033L25.253 41.9017L18.614 35.2826Z" fill="#D8DBE6"/>
<path d="M38.9983 24.1C38.4103 26.2077 36.3732 25.4249 36.3732 25.4249C34.8926 30.4834 30.0387 32.4943 30.0387 32.4943C30.611 36.228 34.4227 37.3461 34.4227 37.3461C28.9099 44.4391 17.0785 39.5873 17.0785 39.5873C23.1793 35.6703 20.121 23.7282 20.121 23.7282C17.2622 23.7282 17.2622 21.4895 17.2622 21.4895C17.2622 18.6905 20.3126 18.8712 20.3126 18.8712C20.3126 18.8712 24.6966 19.8033 26.2192 16.0722C27.7418 12.3411 30.7948 11.4064 30.7948 11.4064C30.7948 11.4064 34.7981 9.91392 37.0951 13.8335C37.0951 13.8335 38.2396 18.3109 37.4757 21.1099C37.4731 21.1151 39.5706 22.0472 38.9983 24.1Z" fill="#4D362E"/>
<path d="M32.3276 25.9667C32.3276 25.9667 33.0889 26.527 33.6611 25.9667C34.2334 25.4064 33.4695 24.7335 33.4695 24.7335C33.4695 24.7335 33.2805 24.6601 33.2805 23.728" stroke="#261E0F" stroke-width="0.484199" stroke-miterlimit="10" stroke-linecap="round"/>
<path d="M17.9817 39.2231C17.4698 39.0555 13.2407 41.1161 13.2407 41.1161C13.2407 41.1161 7.93011 43.1349 6.59655 48.5469C5.26298 53.959 9.26368 64.4061 11.7418 69.0719C14.2199 73.7378 19.7484 83.8131 30.4222 83.9963C41.096 84.1796 44.6478 77.2777 44.6478 77.2777H45.8606C45.8606 77.2777 61.1073 60.4838 54.0563 49.8456C47.0052 39.2074 44.716 38.0893 41.096 37.9034C38.797 37.7765 36.5063 37.5274 34.2339 37.1572C34.2339 37.1572 31.4513 43.6664 17.9817 39.2231Z" fill="#579884"/>
<path d="M48.4723 59.1301C48.4723 59.1301 47.3855 50.9715 44.9073 47.9866C44.9073 47.9866 48.8109 53.0452 51.0974 58.0828L48.4723 59.1301Z" fill="#467A6A"/>
<path d="M39.3212 67.1162L37.7987 69.169C37.7987 69.169 36.4625 68.0483 34.9399 69.5408C34.9399 69.5408 33.2231 71.968 30.9366 72.5283C28.6501 73.0886 25.5997 70.6614 23.8829 68.2342C23.8829 68.2342 18.7376 60.5835 17.9763 53.3098" stroke="white" stroke-width="0.363149" stroke-miterlimit="10" stroke-linecap="round"/>
<path d="M45.1752 71.5515L44.4113 73.4184C44.4113 73.4184 45.7396 74.1751 44.7525 77.2961" stroke="white" stroke-width="0.363149" stroke-miterlimit="10" stroke-linecap="round"/>
<path d="M55.009 28.3913C55.8368 27.0419 56.9803 25.9128 58.3413 25.1006C59.7024 24.2885 61.2405 23.8175 62.824 23.728H68.8093L72.9255 23.9244C72.9255 23.9244 77.6901 23.9244 77.1257 27.8519C76.5613 31.7794 75.4115 32.8895 75.4115 32.8895C75.4115 32.8895 73.7 36.6206 69.883 36.6206C68.5494 36.6206 67.2421 36.6494 66.0713 36.6206C64.1576 36.5761 62.6403 36.4347 62.6403 36.4347C62.6403 36.4347 56.34 35.6885 54.8253 37.5554C53.3106 39.4222 52.9194 39.794 52.9194 39.794C52.9194 39.794 51.2052 41.6609 51.5859 39.2337C51.9665 36.8065 53.8645 29.8863 55.009 28.3913Z" fill="#5C64E0" stroke="#979BE2" stroke-width="0.363149" stroke-miterlimit="10"/>
<path d="M71.9727 31.3789C71.3079 31.4648 70.6322 31.3908 70.002 31.1631C69.3717 30.9353 68.8053 30.5604 68.35 30.0697C68.35 30.0697 67.2081 28.3809 68.35 27.8258C68.35 27.8258 69.4946 27.8258 68.5417 30.0697C67.5888 32.3136 64.3415 31.9366 63.3964 30.8159C63.1033 30.6262 62.851 30.3801 62.6545 30.0919C62.4579 29.8037 62.321 29.4792 62.2519 29.1376C62.2519 29.1376 62.0602 28.3887 62.6325 28.0169C63.2048 27.6451 63.5854 28.9491 63.3964 29.1376C63.2074 29.3261 63.3964 30.8159 61.1073 31.0018C58.8182 31.1877 59.0072 29.8838 59.0072 30.2556" stroke="white" stroke-width="0.363149" stroke-miterlimit="10" stroke-linecap="round"/>
<path d="M29.2414 21.4061C29.3569 21.0104 29.3107 20.649 29.1381 20.5988C28.9655 20.5487 28.7319 20.8288 28.6163 21.2245C28.5008 21.6202 28.547 21.9816 28.7196 22.0317C28.8922 22.0819 29.1258 21.8017 29.2414 21.4061Z" fill="#1A1A1A" stroke="#1A1A1A" stroke-width="0.12105" stroke-miterlimit="10"/>
<path d="M36.2138 21.8864C36.3294 21.4907 36.2831 21.1293 36.1105 21.0792C35.9379 21.029 35.7043 21.3091 35.5887 21.7048C35.4732 22.1005 35.5194 22.4619 35.692 22.5121C35.8646 22.5622 36.0982 22.2821 36.2138 21.8864Z" fill="#1A1A1A" stroke="#1A1A1A" stroke-width="0.12105" stroke-miterlimit="10"/>
<path d="M28.099 38.2779L31.2597 39.5373L31.8923 36.2278L34.2733 37.66L30.627 43.6376L24.6627 40.4014L28.099 38.2779Z" fill="#579884"/>
<path d="M28.099 38.2781C26.9912 39.3804 26.6762 43.3236 26.6762 43.3236C24.5971 41.6164 17.0341 39.3804 17.0341 39.3804C17.0341 39.3804 18.2994 37.1731 18.6091 35.2827C20.2393 36.6835 25.5631 38.1184 27.6186 38.2781H28.099Z" fill="white"/>
<path d="M34.7378 40.1684C34.4569 38.2125 34.8953 37.1731 34.8953 37.1731C33.7875 36.3876 33.1575 34.9658 32.8398 34.6516C32.8398 35.1229 32.6823 35.5968 31.8922 36.2226L34.7378 40.1684Z" fill="white"/>
<path d="M56.4634 60.5914C56.4634 60.5914 49.1603 56.8943 45.5402 58.5726C41.9202 60.251 40.1456 65.3253 39.3817 67.1895C39.3817 67.1895 40.5262 69.6167 45.0992 71.4836L49.4517 65.7023L56.4634 60.5914Z" fill="#4D362E"/>
<path d="M78.5644 67.3938L55.7547 81.449C55.2297 81.771 54.5891 81.9098 54.2689 81.7658L35.0687 73.1384C34.6486 72.9499 34.9768 72.3765 35.7249 72.0021L59.9811 59.819C60.451 59.5834 60.9551 59.497 61.2359 59.6043L78.9897 66.3543C79.3966 66.5141 79.1866 67.0037 78.5644 67.3938Z" fill="#B4B7BF"/>
<path d="M50.7272 76.448L49.811 77.189C49.7932 77.2023 49.7722 77.2107 49.7501 77.2134C49.728 77.2162 49.7056 77.2132 49.685 77.2047L48.3725 76.6365C48.3512 76.627 48.3331 76.6116 48.3204 76.5921C48.3077 76.5726 48.301 76.5498 48.301 76.5266C48.301 76.5033 48.3077 76.4805 48.3204 76.461C48.3331 76.4415 48.3512 76.4261 48.3725 76.4166L49.5092 75.8144C49.5251 75.8067 49.5426 75.8027 49.5603 75.8027C49.5781 75.8027 49.5956 75.8067 49.6115 75.8144L50.7115 76.2464C50.7287 76.2564 50.7432 76.2704 50.7538 76.2873C50.7643 76.3041 50.7707 76.3233 50.7722 76.3431C50.7738 76.3629 50.7705 76.3828 50.7626 76.4011C50.7548 76.4193 50.7426 76.4354 50.7272 76.448Z" fill="#6D6F74"/>
<path d="M52.3447 75.3718L51.4285 76.1128C51.4111 76.1268 51.39 76.1357 51.3678 76.1385C51.3455 76.1413 51.3229 76.1378 51.3025 76.1285L49.9899 75.5604C49.9695 75.5501 49.9523 75.5344 49.9403 75.515C49.9283 75.4956 49.9219 75.4732 49.9219 75.4504C49.9219 75.4276 49.9283 75.4052 49.9403 75.3858C49.9523 75.3664 49.9695 75.3507 49.9899 75.3404L51.1266 74.7382C51.1426 74.7305 51.1601 74.7266 51.1778 74.7266C51.1955 74.7266 51.213 74.7305 51.229 74.7382L52.3316 75.1702C52.3486 75.1805 52.3629 75.1947 52.3732 75.2116C52.3836 75.2286 52.3896 75.2478 52.3909 75.2676C52.3922 75.2874 52.3887 75.3072 52.3806 75.3254C52.3726 75.3435 52.3602 75.3595 52.3447 75.3718Z" fill="#6D6F74"/>
<path d="M55.0694 80.8891L35.8528 72.5114C35.4768 72.3475 35.0391 72.518 34.875 72.8924C34.711 73.2667 34.8828 73.703 35.2587 73.8669L54.4754 82.2447C54.8513 82.4086 55.2891 82.238 55.4531 81.8637C55.6172 81.4894 55.4454 81.053 55.0694 80.8891Z" fill="#B4B7BF"/>
<path d="M79.1046 69.354L54.7732 80.8256C54.3656 81.0178 54.1913 81.5032 54.384 81.9098L54.3851 81.9121C54.5778 82.3187 55.0645 82.4925 55.4721 82.3003L79.8035 70.8288C80.2112 70.6366 80.3854 70.1512 80.1927 69.7446L80.1916 69.7422C79.9989 69.3356 79.5123 69.1618 79.1046 69.354Z" fill="#B4B7BF"/>
<path d="M54.0036 74.3272L53.0874 75.0656C53.0701 75.0798 53.0492 75.089 53.027 75.0922C53.0048 75.0955 52.9821 75.0926 52.9614 75.0839L51.6488 74.5158C51.6275 74.5063 51.6095 74.4908 51.5968 74.4713C51.5841 74.4518 51.5773 74.429 51.5773 74.4058C51.5773 74.3825 51.5841 74.3598 51.5968 74.3403C51.6095 74.3207 51.6275 74.3053 51.6488 74.2958L52.7829 73.691C52.7995 73.6839 52.8174 73.6803 52.8354 73.6803C52.8534 73.6803 52.8713 73.6839 52.8879 73.691L53.9878 74.123C54.0056 74.1329 54.0206 74.147 54.0315 74.1641C54.0424 74.1812 54.049 74.2007 54.0505 74.2209C54.0521 74.2411 54.0486 74.2614 54.0404 74.28C54.0322 74.2985 54.0196 74.3147 54.0036 74.3272Z" fill="#6D6F74"/>
<path d="M48.5878 75.3873L47.6848 76.1257C47.668 76.1399 47.6475 76.1492 47.6257 76.1524C47.6039 76.1557 47.5816 76.1528 47.5614 76.144L46.2489 75.5759C46.2284 75.5656 46.2112 75.5499 46.1992 75.5305C46.1872 75.5111 46.1808 75.4887 46.1808 75.4659C46.1808 75.4431 46.1872 75.4207 46.1992 75.4013C46.2112 75.3819 46.2284 75.3662 46.2489 75.3559L47.3855 74.7537C47.4015 74.746 47.419 74.7421 47.4367 74.7421C47.4544 74.7421 47.4719 74.746 47.4879 74.7537L48.5905 75.1857C48.6066 75.1973 48.6196 75.2125 48.6286 75.2302C48.6375 75.2479 48.642 75.2674 48.6418 75.2872C48.6415 75.307 48.6365 75.3264 48.6271 75.3439C48.6177 75.3613 48.6042 75.3762 48.5878 75.3873Z" fill="#6D6F74"/>
<path d="M50.2079 74.3113L49.2917 75.0496C49.2744 75.0638 49.2535 75.073 49.2313 75.0763C49.2091 75.0795 49.1864 75.0766 49.1657 75.068L47.8532 74.4998C47.8319 74.4903 47.8138 74.4749 47.8011 74.4554C47.7884 74.4359 47.7817 74.4131 47.7817 74.3898C47.7817 74.3666 47.7884 74.3438 47.8011 74.3243C47.8138 74.3048 47.8319 74.2893 47.8532 74.2799L48.9899 73.6776C49.0058 73.67 49.0233 73.666 49.041 73.666C49.0588 73.666 49.0763 73.67 49.0922 73.6776L50.1922 74.1097C50.2094 74.1197 50.2239 74.1337 50.2345 74.1506C50.245 74.1674 50.2514 74.1866 50.2529 74.2064C50.2545 74.2262 50.2512 74.2461 50.2433 74.2643C50.2355 74.2826 50.2233 74.2987 50.2079 74.3113Z" fill="#6D6F74"/>
<path d="M51.864 73.2666L50.9478 74.005C50.9306 74.0194 50.9097 74.0288 50.8874 74.032C50.8651 74.0353 50.8424 74.0322 50.8218 74.0233L49.5092 73.4551C49.4888 73.4449 49.4716 73.4292 49.4596 73.4097C49.4476 73.3903 49.4412 73.368 49.4412 73.3451C49.4412 73.3223 49.4476 73.3 49.4596 73.2805C49.4716 73.2611 49.4888 73.2454 49.5092 73.2352L50.6459 72.6303C50.662 72.6232 50.6795 72.6195 50.6971 72.6195C50.7147 72.6195 50.7322 72.6232 50.7483 72.6303L51.8508 73.0624C51.8684 73.0725 51.8832 73.0868 51.8939 73.104C51.9046 73.1212 51.9108 73.1408 51.9121 73.161C51.9134 73.1812 51.9097 73.2014 51.9013 73.2198C51.8929 73.2382 51.8801 73.2543 51.864 73.2666Z" fill="#6D6F74"/>
<path d="M53.1739 77.4061L52.2577 78.1445C52.2401 78.1582 52.2192 78.1671 52.1971 78.1703C52.175 78.1735 52.1525 78.1709 52.1317 78.1628L50.8191 77.5946C50.798 77.5847 50.7801 77.5689 50.7676 77.5492C50.7551 77.5295 50.7484 77.5067 50.7484 77.4834C50.7484 77.46 50.7551 77.4372 50.7676 77.4175C50.7801 77.3978 50.798 77.382 50.8191 77.3721L51.9558 76.7699C51.9719 76.7627 51.9894 76.759 52.007 76.759C52.0246 76.759 52.0421 76.7627 52.0582 76.7699L53.1607 77.2019C53.1783 77.212 53.1931 77.2263 53.2038 77.2435C53.2145 77.2607 53.2207 77.2803 53.222 77.3005C53.2233 77.3207 53.2196 77.3409 53.2112 77.3593C53.2028 77.3778 53.19 77.3938 53.1739 77.4061Z" fill="#6D6F74"/>
<path d="M54.7911 76.3301L53.8776 77.0659C53.86 77.0796 53.8391 77.0885 53.817 77.0917C53.7949 77.0949 53.7723 77.0923 53.7516 77.0842L52.439 76.516C52.4177 76.5065 52.3996 76.4911 52.3869 76.4716C52.3742 76.4521 52.3675 76.4293 52.3675 76.4061C52.3675 76.3828 52.3742 76.36 52.3869 76.3405C52.3996 76.321 52.4177 76.3056 52.439 76.2961L53.573 75.6913C53.5892 75.6841 53.6066 75.6804 53.6242 75.6804C53.6419 75.6804 53.6593 75.6841 53.6754 75.6913L54.778 76.1233C54.7961 76.1333 54.8114 76.1477 54.8224 76.1651C54.8335 76.1826 54.84 76.2025 54.8413 76.2231C54.8426 76.2437 54.8387 76.2643 54.8299 76.283C54.8211 76.3017 54.8078 76.3179 54.7911 76.3301Z" fill="#6D6F74"/>
<path d="M46.2253 74.2406L45.2855 74.9476C45.2662 74.9584 45.2445 74.964 45.2225 74.964C45.2004 74.964 45.1787 74.9584 45.1595 74.9476L43.8469 74.3349C43.8256 74.3254 43.8075 74.31 43.7948 74.2905C43.7821 74.271 43.7754 74.2482 43.7754 74.2249C43.7754 74.2017 43.7821 74.1789 43.7948 74.1594C43.8075 74.1399 43.8256 74.1245 43.8469 74.115L45.0046 73.5494C45.0207 73.5423 45.0381 73.5386 45.0558 73.5386C45.0734 73.5386 45.0908 73.5423 45.107 73.5494L46.1938 74.0181C46.2167 74.0246 46.2372 74.0377 46.2528 74.0556C46.2685 74.0736 46.2786 74.0956 46.2819 74.1192C46.2852 74.1427 46.2817 74.1667 46.2716 74.1883C46.2616 74.2098 46.2455 74.228 46.2253 74.2406Z" fill="#6D6F74"/>
<path d="M47.8788 73.2194L46.9391 73.9263C46.921 73.9392 46.8999 73.9471 46.8778 73.9494C46.8557 73.9517 46.8334 73.9483 46.8131 73.9394L45.5005 73.3267C45.4801 73.3165 45.4629 73.3008 45.4509 73.2814C45.4389 73.2619 45.4325 73.2396 45.4325 73.2168C45.4325 73.1939 45.4389 73.1716 45.4509 73.1522C45.4629 73.1327 45.4801 73.117 45.5005 73.1068L46.6582 72.5412C46.6743 72.5341 46.6917 72.5304 46.7094 72.5304C46.727 72.5304 46.7444 72.5341 46.7606 72.5412L47.8473 73.0099C47.8672 73.018 47.8846 73.031 47.8979 73.0478C47.9112 73.0646 47.9198 73.0845 47.923 73.1057C47.9262 73.1268 47.9238 73.1484 47.916 73.1684C47.9083 73.1883 47.8955 73.2059 47.8788 73.2194Z" fill="#6D6F74"/>
<path d="M49.5725 72.2298L48.6327 72.9368C48.614 72.9489 48.5921 72.9554 48.5697 72.9554C48.5474 72.9554 48.5255 72.9489 48.5067 72.9368L47.1942 72.3267C47.173 72.3167 47.1552 72.301 47.1426 72.2813C47.1301 72.2616 47.1235 72.2387 47.1235 72.2154C47.1235 72.1921 47.1301 72.1692 47.1426 72.1495C47.1552 72.1298 47.173 72.1141 47.1942 72.1041L48.3492 71.5412C48.3652 71.5335 48.3827 71.5295 48.4004 71.5295C48.4181 71.5295 48.4356 71.5335 48.4516 71.5412L49.5384 72.0099C49.5608 72.0165 49.5809 72.0293 49.5963 72.0469C49.6117 72.0644 49.6218 72.086 49.6253 72.109C49.6289 72.1321 49.6258 72.1557 49.6165 72.1771C49.6072 72.1984 49.5919 72.2167 49.5725 72.2298Z" fill="#6D6F74"/>
<path d="M53.5781 72.2952L52.6725 73.0335C52.655 73.0476 52.6339 73.0565 52.6117 73.0592C52.5894 73.062 52.5668 73.0586 52.5464 73.0492L51.2339 72.4837C51.2135 72.473 51.1965 72.457 51.1846 72.4374C51.1727 72.4178 51.1664 72.3953 51.1664 72.3724C51.1664 72.3495 51.1727 72.327 51.1846 72.3074C51.1965 72.2878 51.2135 72.2718 51.2339 72.2611L52.3706 71.6589C52.3867 71.6518 52.4041 71.6481 52.4218 71.6481C52.4394 71.6481 52.4568 71.6518 52.4729 71.6589L53.5755 72.0909C53.5924 72.102 53.6064 72.117 53.6161 72.1347C53.6259 72.1524 53.6311 72.1722 53.6314 72.1924C53.6316 72.2125 53.6269 72.2325 53.6176 72.2504C53.6083 72.2683 53.5948 72.2837 53.5781 72.2952Z" fill="#6D6F74"/>
<path d="M51.2998 71.3186L50.36 72.0256C50.3425 72.0398 50.3213 72.0486 50.2989 72.0509C50.2766 72.0532 50.254 72.049 50.234 72.0387L48.9214 71.426C48.9001 71.4165 48.882 71.401 48.8694 71.3815C48.8567 71.362 48.8499 71.3393 48.8499 71.316C48.8499 71.2927 48.8567 71.27 48.8694 71.2505C48.882 71.2309 48.9001 71.2155 48.9214 71.206L50.0765 70.6405C50.0924 70.6326 50.1099 70.6285 50.1277 70.6285C50.1454 70.6285 50.1629 70.6326 50.1789 70.6405L51.2657 71.1092C51.2863 71.1162 51.3046 71.1288 51.3187 71.1454C51.3327 71.1621 51.342 71.1822 51.3455 71.2037C51.349 71.2252 51.3466 71.2472 51.3386 71.2675C51.3305 71.2877 51.3171 71.3054 51.2998 71.3186Z" fill="#6D6F74"/>
<path d="M52.9533 70.2973L52.0135 71.0043C51.9948 71.0165 51.9729 71.0229 51.9505 71.0229C51.9282 71.0229 51.9063 71.0165 51.8875 71.0043L50.575 70.3916C50.5537 70.3821 50.5356 70.3667 50.5229 70.3472C50.5102 70.3277 50.5035 70.3049 50.5035 70.2816C50.5035 70.2584 50.5102 70.2356 50.5229 70.2161C50.5356 70.1966 50.5537 70.1812 50.575 70.1717L51.73 69.6087C51.746 69.6009 51.7635 69.5968 51.7812 69.5968C51.799 69.5968 51.8165 69.6009 51.8324 69.6087L52.9192 70.0774C52.9424 70.0831 52.9634 70.0954 52.9796 70.113C52.9957 70.1305 53.0063 70.1525 53.01 70.176C53.0136 70.1995 53.0102 70.2236 53.0001 70.2452C52.99 70.2668 52.9738 70.285 52.9533 70.2973Z" fill="#6D6F74"/>
<path d="M54.1139 67.2473L50.486 69.376C50.4278 69.4156 50.3609 69.4406 50.2909 69.4488C50.221 69.457 50.1501 69.4482 50.0843 69.4231L47.1573 67.5903C46.9184 67.4725 46.6323 67.263 46.9683 67.1242L51.473 64.9013C51.5885 64.8515 51.3391 65.3385 51.4257 65.3778L54.2478 66.6398C54.484 66.7393 54.4053 67.0771 54.1139 67.2473Z" fill="#D8DBE6"/>
<path d="M76.6453 45.1484L50.4623 53.3411C49.8585 53.5296 49.4569 54.0088 49.5277 54.4513L53.7542 81.0717C53.8487 81.6582 54.6993 81.8939 55.4474 81.5456L79.7404 70.1664C80.2129 69.9465 80.5016 69.5511 80.4649 69.1767L78.1364 45.7428C78.0708 45.2034 77.3699 44.9206 76.6453 45.1484Z" fill="#293C7C" stroke="#5E66F2" stroke-width="0.363149" stroke-miterlimit="10"/>
</svg>
