<svg width="134" height="29" viewBox="0 0 134 29" fill="none" xmlns="http://www.w3.org/2000/svg">
<g clip-path="url(#clip0)">
<path d="M0 28.2536L4.97706 0H8.81579L3.84232 28.2572L0 28.2536Z" fill="#5C64E0"/>
<path d="M9.60217 28.2536L12.8125 9.9397H16.6548L13.4229 28.2536H9.60217Z" fill="#5C64E0"/>
<path d="M35.0442 9.9541H39.199L28.3435 28.268H24.6987L20.2675 9.9541H24.3827L27.3632 23.316L35.0442 9.9541Z" fill="#5C64E0"/>
<path d="M57.6848 19.0068C57.585 19.5631 57.4543 20.1133 57.2934 20.6551H42.7321C42.7321 23.632 44.6497 25.1617 47.6302 25.1617C48.7029 25.1597 49.7617 24.9196 50.7305 24.4588C51.6992 23.9981 52.5536 23.3281 53.232 22.4972L56.0186 24.0234C54.9659 25.4847 53.5798 26.6738 51.9753 27.4919C50.3709 28.31 48.5944 28.7336 46.7935 28.7275C41.5004 28.7275 38.0136 24.8493 39.0334 19.0319C39.4648 16.3819 40.8182 13.9693 42.8549 12.2198C44.8915 10.4702 47.4806 9.49612 50.1654 9.46924C55.3758 9.4836 58.6652 13.2469 57.6848 19.0068ZM54.0939 17.5704C54.2483 14.6977 52.4061 13.0602 49.5872 13.0602C46.7683 13.0602 44.3732 14.4966 43.2779 17.5704H54.0939Z" fill="#5C64E0"/>
<path d="M59.6532 28.2536L64.6374 0H68.4762L63.4919 28.2572L59.6532 28.2536Z" fill="#5C64E0"/>
<path d="M69.2516 28.2536L72.4835 9.9397H76.3222L73.0903 28.2536H69.2516Z" fill="#5C64E0"/>
<path d="M94.3595 0L93.7239 3.59095H92.3917C89.1778 3.59095 88.0035 5.47261 87.6516 7.78519L87.2602 9.93976H91.4508L90.9014 13.1716H86.718L84.0499 28.2536H80.2112L82.8361 13.1716H79.3601L79.9095 9.93976H83.3963L83.7088 8.2161C84.5993 3.2534 87.3428 0 92.3199 0H94.3595Z" fill="#5C64E0"/>
<path d="M111.108 19.0069C111.006 19.5615 110.875 20.1105 110.716 20.6516H96.137C96.137 23.6321 98.0582 25.1582 101.035 25.1582C102.11 25.1586 103.172 24.9196 104.143 24.4588C105.115 23.9979 105.971 23.3267 106.651 22.4937L109.434 24.0235C108.382 25.4841 106.996 26.6727 105.392 27.4908C103.789 28.3089 102.013 28.7329 100.213 28.7276C94.9233 28.7276 91.4364 24.8494 92.4563 19.05C92.8863 16.3994 94.2393 13.986 96.2763 12.2362C98.3132 10.4864 100.903 9.51277 103.588 9.48731C108.806 9.48372 112.088 13.247 111.108 19.0069ZM107.517 17.5705C107.675 14.6978 105.833 13.0639 103.01 13.0639C100.188 13.0639 97.7996 14.5003 96.7008 17.5705H107.517Z" fill="#5C64E0"/>
<path d="M122.02 3.29284C122.214 1.8816 123.626 0.822266 125.037 0.822266C126.527 0.822266 127.468 1.89955 127.27 3.29284C127.105 3.98996 126.71 4.61107 126.148 5.05602C125.587 5.50097 124.891 5.74384 124.175 5.74546C122.764 5.74546 121.733 4.70409 122.02 3.29284Z" fill="#A0A4EA"/>
<path d="M115.338 3.29284C115.535 1.8816 116.947 0.822266 118.358 0.822266C119.844 0.822266 120.785 1.89955 120.591 3.29284C120.426 3.98996 120.031 4.61107 119.469 5.05602C118.907 5.50097 118.212 5.74384 117.496 5.74546C116.085 5.74546 115.065 4.70409 115.338 3.29284Z" fill="#5C64E0"/>
<path d="M128.725 3.29284C128.923 1.8816 130.33 0.822266 131.742 0.822266C133.232 0.822266 134.173 1.89955 133.975 3.29284C133.81 3.98996 133.414 4.61107 132.853 5.05602C132.291 5.50097 131.596 5.74384 130.88 5.74546C129.468 5.74546 128.452 4.70409 128.725 3.29284Z" fill="#F6DBD1"/>
</g>
<defs>
<clipPath id="clip0">
<rect width="134" height="28.7276" fill="white"/>
</clipPath>
</defs>
</svg>
