<svg width="107" height="24" viewBox="0 0 107 24" fill="none" xmlns="http://www.w3.org/2000/svg">
<g clip-path="url(#clip0)">
<path d="M0.0292969 22.7609L3.97169 0.380859H7.0124L3.07285 22.7638L0.0292969 22.7609Z" fill="#191A44"/>
<path d="M7.63477 22.7606L10.1777 8.25391H13.2212L10.6613 22.7606H7.63477Z" fill="#191A44"/>
<path d="M27.7889 8.26562H31.0799L22.4811 22.7723H19.594L16.084 8.26562H19.3437L21.7046 18.8498L27.7889 8.26562Z" fill="#191A44"/>
<path d="M45.722 15.4367C45.6429 15.8773 45.5394 16.3131 45.412 16.7423H33.8778C33.8778 19.1003 35.3967 20.312 37.7576 20.312C38.6073 20.3104 39.446 20.1203 40.2134 19.7553C40.9807 19.3903 41.6575 18.8596 42.1949 18.2015L44.4022 19.4104C43.5683 20.5679 42.4704 21.5098 41.1995 22.1578C39.9286 22.8059 38.5214 23.1414 37.0948 23.1366C32.9021 23.1366 30.1402 20.0646 30.948 15.4566C31.2897 13.3575 32.3618 11.4464 33.975 10.0606C35.5883 8.67475 37.6391 7.90313 39.7658 7.88184C43.893 7.89321 46.4986 10.8742 45.722 15.4367ZM42.8776 14.2989C42.9999 12.0233 41.5407 10.7263 39.3078 10.7263C37.0749 10.7263 35.1777 11.8641 34.3101 14.2989H42.8776Z" fill="#191A44"/>
<path d="M47.2812 22.7609L51.2293 0.380859H54.27L50.322 22.7638L47.2812 22.7609Z" fill="#191A44"/>
<path d="M54.8848 22.7606L57.4448 8.25391H60.4855L57.9255 22.7606H54.8848Z" fill="#191A44"/>
<path d="M74.7719 0.380859L74.2684 3.2253H73.2131C70.6673 3.2253 69.7372 4.71579 69.4584 6.54761L69.1484 8.25428H72.4679L72.0327 10.8143H68.7189L66.6055 22.7609H63.5648L65.644 10.8143H62.8906L63.3258 8.25428H66.0878L66.3352 6.88894C67.0407 2.95792 69.2138 0.380859 73.1562 0.380859H74.7719Z" fill="#191A44"/>
<path d="M88.0394 15.4361C87.9586 15.8754 87.8551 16.3103 87.7294 16.7389H76.1809C76.1809 19.0998 77.7027 20.3087 80.0607 20.3087C80.9124 20.3089 81.7535 20.1197 82.5229 19.7546C83.2924 19.3896 83.971 18.8579 84.5095 18.1981L86.7139 19.4098C85.8802 20.5668 84.7826 21.5083 83.5123 22.1563C82.2419 22.8043 80.8354 23.1402 79.4094 23.136C75.2195 23.136 72.4576 20.064 73.2654 15.4703C73.606 13.3706 74.6778 11.459 76.2913 10.0729C77.9047 8.6869 79.9562 7.91568 82.0832 7.89551C86.2161 7.89267 88.816 10.8736 88.0394 15.4361ZM85.195 14.2983C85.3201 12.0228 83.8609 10.7286 81.6252 10.7286C79.3895 10.7286 77.4979 11.8664 76.6275 14.2983H85.195Z" fill="#191A44"/>
<path d="M96.6837 2.98823C96.8373 1.87036 97.9552 1.03125 99.0731 1.03125C100.254 1.03125 100.999 1.88458 100.842 2.98823C100.711 3.54042 100.398 4.03241 99.9533 4.38486C99.5085 4.73731 98.9579 4.92969 98.3904 4.93098C97.2725 4.93098 96.4562 4.10609 96.6837 2.98823Z" fill="#191A44"/>
<path d="M91.3906 2.98823C91.547 1.87036 92.6649 1.03125 93.7828 1.03125C94.9604 1.03125 95.7056 1.88458 95.552 2.98823C95.421 3.54042 95.1078 4.03241 94.663 4.38486C94.2182 4.73731 93.6676 4.92969 93.1001 4.93098C91.9822 4.93098 91.1744 4.10609 91.3906 2.98823Z" fill="#191A44"/>
<path d="M101.994 2.98823C102.151 1.87036 103.266 1.03125 104.384 1.03125C105.564 1.03125 106.309 1.88458 106.153 2.98823C106.022 3.54042 105.709 4.03241 105.264 4.38486C104.819 4.73731 104.268 4.92969 103.701 4.93098C102.583 4.93098 101.778 4.10609 101.994 2.98823Z" fill="#191A44"/>
</g>
<defs>
<clipPath id="clip0">
<rect width="106.143" height="22.7555" fill="white" transform="translate(0.0292969 0.380859)"/>
</clipPath>
</defs>
</svg>
