<svg width="184" height="210" viewBox="0 0 184 210" fill="none" xmlns="http://www.w3.org/2000/svg">
<path d="M2.96374 132.205C3.53923 132.2 4.10026 132.024 4.5759 131.698C5.05154 131.372 5.42041 130.912 5.63588 130.376C5.85135 129.839 5.90374 129.251 5.78642 128.685C5.66909 128.118 5.38733 127.6 4.97676 127.194C4.56619 126.789 4.04525 126.515 3.47981 126.407C2.91438 126.299 2.32985 126.362 1.80014 126.588C1.27044 126.815 0.819341 127.193 0.503901 127.677C0.188461 128.161 0.0228455 128.728 0.0279963 129.306C0.0349034 130.082 0.348085 130.823 0.898644 131.367C1.4492 131.911 2.19204 132.212 2.96374 132.205Z" fill="#787CC8" fill-opacity="0.5"/>
<path d="M3.30511 170.395C3.87818 170.39 4.43694 170.215 4.91131 169.892C5.38567 169.568 5.75451 169.112 5.97157 168.579C6.18862 168.045 6.24422 167.46 6.13139 166.895C6.01856 166.33 5.74232 165.811 5.33733 165.404C4.93234 164.996 4.41663 164.718 3.85489 164.604C3.29315 164.49 2.7104 164.545 2.17974 164.762C1.64907 164.98 1.19413 165.35 0.871972 165.826C0.549815 166.303 0.374791 166.864 0.368856 167.44C0.36485 167.829 0.438035 168.215 0.584132 168.575C0.730229 168.935 0.946303 169.262 1.21971 169.537C1.49312 169.812 1.81838 170.03 2.17645 170.177C2.53453 170.325 2.91823 170.399 3.30511 170.395Z" fill="#787CC8" fill-opacity="0.5"/>
<path d="M3.6415 208.472C4.21746 208.467 4.77894 208.29 5.25481 207.964C5.73068 207.638 6.09955 207.177 6.31468 206.64C6.52981 206.103 6.58153 205.514 6.46329 204.948C6.34505 204.381 6.06217 203.862 5.65047 203.457C5.23878 203.052 4.7168 202.779 4.15064 202.673C3.58448 202.566 2.99962 202.631 2.47012 202.859C1.94063 203.087 1.49033 203.467 1.17626 203.953C0.862188 204.438 0.698474 205.006 0.705853 205.585C0.709265 205.968 0.787989 206.348 0.937507 206.7C1.08702 207.053 1.30439 207.373 1.57714 207.641C1.84989 207.91 2.17265 208.121 2.52691 208.264C2.88116 208.406 3.25994 208.477 3.6415 208.472Z" fill="#787CC8" fill-opacity="0.5"/>
<path d="M3.30459 170.689C3.88055 170.684 4.44203 170.507 4.9179 170.181C5.39377 169.855 5.76263 169.394 5.97776 168.857C6.19289 168.32 6.24461 167.731 6.12637 167.164C6.00813 166.597 5.72525 166.079 5.31356 165.674C4.90187 165.269 4.37989 164.996 3.81373 164.889C3.24757 164.783 2.6627 164.848 2.13321 165.075C1.60372 165.303 1.15342 165.684 0.839346 166.169C0.525274 166.654 0.36156 167.223 0.368939 167.801C0.372351 168.185 0.451075 168.564 0.600593 168.917C0.750111 169.27 0.96748 169.59 1.24023 169.858C1.51298 170.126 1.83574 170.338 2.18999 170.48C2.54425 170.623 2.92302 170.694 3.30459 170.689Z" fill="#B8BBE3"/>
<path d="M40.577 131.87C41.1525 131.865 41.7135 131.689 42.1892 131.363C42.6648 131.037 43.0337 130.577 43.2492 130.041C43.4646 129.505 43.517 128.916 43.3997 128.35C43.2824 127.783 43.0006 127.265 42.59 126.859C42.1795 126.454 41.6585 126.18 41.0931 126.072C40.5277 125.964 39.9431 126.027 39.4134 126.254C38.8837 126.48 38.4326 126.859 38.1172 127.342C37.8017 127.826 37.6361 128.393 37.6413 128.972C37.6482 129.747 37.9614 130.488 38.5119 131.032C39.0625 131.576 39.8053 131.877 40.577 131.87Z" fill="#787CC8" fill-opacity="0.5"/>
<path d="M40.9159 170.06C41.4914 170.055 42.0524 169.879 42.5281 169.553C43.0037 169.227 43.3726 168.767 43.588 168.231C43.8035 167.694 43.8559 167.106 43.7386 166.54C43.6212 165.973 43.3395 165.455 42.9289 165.049C42.5183 164.644 41.9974 164.37 41.432 164.262C40.8665 164.154 40.282 164.217 39.7523 164.443C39.2226 164.67 38.7715 165.048 38.456 165.532C38.1406 166.016 37.975 166.583 37.9801 167.161C37.9871 167.937 38.3002 168.678 38.8508 169.222C39.4014 169.766 40.1442 170.067 40.9159 170.06Z" fill="#787CC8" fill-opacity="0.5"/>
<path d="M41.2528 208.137C41.8288 208.132 42.3903 207.955 42.8661 207.629C43.342 207.303 43.7109 206.842 43.926 206.305C44.1411 205.768 44.1929 205.179 44.0746 204.613C43.9564 204.046 43.6735 203.527 43.2618 203.122C42.8501 202.717 42.3281 202.444 41.762 202.338C41.1958 202.231 40.6109 202.296 40.0815 202.524C39.552 202.752 39.1017 203.132 38.7876 203.618C38.4735 204.103 38.3098 204.671 38.3172 205.25C38.3206 205.633 38.3993 206.013 38.5488 206.365C38.6984 206.718 38.9157 207.038 39.1885 207.306C39.4612 207.575 39.784 207.786 40.1382 207.929C40.4925 208.071 40.8713 208.142 41.2528 208.137Z" fill="#787CC8" fill-opacity="0.5"/>
<path d="M78.6435 208.412C79.2194 208.407 79.7809 208.23 80.2568 207.904C80.7326 207.578 81.1015 207.117 81.3166 206.58C81.5318 206.043 81.5835 205.454 81.4652 204.887C81.347 204.32 81.0641 203.802 80.6524 203.397C80.2407 202.992 79.7188 202.719 79.1526 202.612C78.5864 202.506 78.0016 202.571 77.4721 202.798C76.9426 203.026 76.4923 203.407 76.1782 203.892C75.8641 204.377 75.7004 204.945 75.7078 205.524C75.7112 205.908 75.7899 206.287 75.9395 206.64C76.089 206.993 76.3063 207.313 76.5791 207.581C76.8518 207.849 77.1746 208.061 77.5289 208.203C77.8831 208.346 78.2619 208.417 78.6435 208.412Z" fill="#787CC8" fill-opacity="0.5"/>
<path d="M116.102 208.412C116.678 208.407 117.24 208.23 117.716 207.904C118.192 207.578 118.56 207.117 118.776 206.58C118.991 206.043 119.042 205.454 118.924 204.887C118.806 204.32 118.523 203.802 118.111 203.397C117.7 202.992 117.178 202.719 116.612 202.612C116.045 202.506 115.461 202.571 114.931 202.798C114.402 203.026 113.951 203.407 113.637 203.892C113.323 204.377 113.159 204.945 113.167 205.524C113.17 205.908 113.249 206.287 113.398 206.64C113.548 206.993 113.765 207.313 114.038 207.581C114.311 207.849 114.634 208.061 114.988 208.203C115.342 208.346 115.721 208.417 116.102 208.412Z" fill="#787CC8" fill-opacity="0.5"/>
<path d="M78.1874 131.535C78.7648 131.539 79.3302 131.37 79.8118 131.05C80.2933 130.73 80.6692 130.273 80.8916 129.737C81.114 129.202 81.1728 128.612 81.0606 128.042C80.9484 127.473 80.6702 126.95 80.2614 126.54C79.8526 126.13 79.3318 125.852 78.7651 125.74C78.1985 125.629 77.6116 125.689 77.0793 125.914C76.547 126.139 76.0932 126.518 75.7757 127.002C75.4582 127.487 75.2914 128.056 75.2965 128.636C75.3033 129.404 75.6102 130.139 76.1511 130.681C76.692 131.223 77.4234 131.53 78.1874 131.535Z" fill="#787CC8" fill-opacity="0.5"/>
<path d="M78.599 169.424C79.174 169.428 79.7372 169.26 80.2174 168.942C80.6977 168.625 81.0735 168.171 81.2975 167.639C81.5214 167.106 81.5834 166.519 81.4757 165.952C81.3679 165.384 81.0953 164.861 80.6921 164.449C80.289 164.037 79.7734 163.754 79.2105 163.636C78.6475 163.518 78.0625 163.571 77.5292 163.787C76.996 164.003 76.5384 164.373 76.2142 164.85C75.89 165.327 75.7137 165.891 75.7077 166.468C75.7037 166.854 75.7754 167.236 75.9187 167.593C76.062 167.95 76.274 168.275 76.5426 168.55C76.8113 168.824 77.1312 169.043 77.4841 169.193C77.837 169.343 78.2159 169.422 78.599 169.424Z" fill="#787CC8" fill-opacity="0.5"/>
<circle r="69.78" transform="matrix(-1 0 0 1 77.7805 77.6228)" fill="#D2E6EB"/>
<path d="M122.956 74.1144C122.956 74.1144 120.922 104.248 154.858 72.1486L165.39 77.7719C165.39 77.7719 126.783 131.502 106.178 88.3155C91.319 57.1695 122.956 74.1144 122.956 74.1144L123.101 74.9087L122.956 74.1144Z" fill="#D99379"/>
<path d="M101.125 35.3816C100.097 39.0859 96.5282 37.7105 96.5282 37.7105C93.9327 46.6 88.3931 49.4211 88.3931 49.4211C88.6271 58.3246 91.4356 58.3246 91.4356 58.3246C85.3506 73.7887 64.0532 61.6049 64.0532 61.6049C70.5173 51.9328 68.0786 34.7255 68.0786 34.7255C63.0725 34.7255 63.0725 30.7892 63.0725 30.7892C63.0725 25.8688 68.4133 26.1968 68.4133 26.1968C68.4133 26.1968 67.9358 17.3214 70.6062 10.7609C73.2766 4.20038 88.159 7.71494 88.159 7.71494C88.159 7.71494 93.7806 10.4516 97.7874 17.3401C97.7874 17.3401 99.7907 25.2128 98.4544 30.1331C98.4544 30.1331 102.126 31.7733 101.125 35.3816Z" fill="#D99379"/>
<path d="M88.6276 38.9124C88.6276 38.9124 90.3641 40.3862 91.6677 38.9124C92.9713 37.4387 91.2324 35.6673 91.2324 35.6673C90.4086 32.9307 90.7971 32.8205 90.7971 33.0197" stroke="#261E0F" stroke-miterlimit="10" stroke-linecap="round"/>
<path d="M91.4258 58.2498C91.4258 58.2498 97.9882 58.3247 102.812 59.0933C104.282 59.3299 109.222 59.4963 113.903 63.2451C118.467 66.9003 120.961 71.4247 120.961 71.4247L123.856 75.4828C123.856 75.4828 125.305 80.7734 114.362 85.8976C114.362 85.8976 112.499 94.4075 116.468 103.47C122.855 118.058 121.149 137.913 121.149 137.913C111.085 147.285 98.3884 150.715 89.5535 151.737C77.3836 153.143 68.4901 148.457 68.4901 148.457L64.2774 121.746L61.9371 106.985C61.9371 106.985 62.1711 91.2866 55.384 90.818C48.5969 90.3494 46.0342 92.0809 42.2872 94.1732C42.2872 94.1732 42.1351 86.7786 43.4574 78.2406C44.4989 71.5137 52.1262 64.8126 64.0528 61.605C64.0528 61.605 85.2893 72.636 91.4258 58.2498Z" fill="#293C7C"/>
<path d="M50.0032 83.3201C50.0032 83.3201 58.8943 79.0394 62.4165 97.4533C62.8987 99.9744 63.7599 107.039 64.0548 110.34C65.7797 129.661 109.999 108.653 109.999 108.653C109.999 108.653 115.894 103.873 124.231 107.938C132.567 112.001 133.604 113.819 128.01 112.803C122.417 111.786 120.322 111.983 126.974 116.608C133.627 121.233 134.446 121.969 134.446 121.969C134.446 121.969 137.491 124.843 134.858 125.148C134.858 125.148 138.142 128.089 136.695 128.717C136.695 128.717 138.1 132.932 133.91 130.511C129.721 128.091 123.283 124.546 123.283 124.546C123.283 124.546 123.025 124.319 121.738 123.721C119.512 122.688 112.477 123.014 96.5861 129.555C65.5667 142.407 52.0814 128.782 48.1402 120.417C44.8216 113.374 42.2753 92.7438 43.2254 87.3806C44.1756 82.0174 50.0032 83.3201 50.0032 83.3201Z" fill="#D99379"/>
<path d="M42.2892 94.1733C42.2892 94.1733 43.9696 94.5177 46.5018 94.1733C53.0221 93.2876 64.7568 92.4394 64.7568 103.545C64.7568 104.483 91.4512 86.0757 91.4512 86.0757L53.4668 76.5278L42.9913 84.0982V93.0017L42.7572 93.4703L43.4593 93.236" fill="#293C7C"/>
<path d="M111.378 31.9653C111.378 31.9653 115.384 24.4207 125.064 23.7647L135.549 23.7483L142.755 24.0927C142.755 24.0927 151.101 24.0927 150.099 30.9813C149.097 37.8698 147.094 39.838 147.094 39.838C147.094 39.838 144.098 46.3985 137.414 46.3985C135.079 46.3985 132.787 46.4453 130.737 46.3985C127.383 46.3212 124.729 46.0704 124.729 46.0704C124.729 46.0704 113.713 44.7583 111.043 48.0386C108.373 51.3189 107.706 51.9749 107.706 51.9749C107.706 51.9749 104.7 55.2552 105.37 50.9908C106.037 46.7265 109.374 34.5895 111.378 31.9653Z" fill="#6E72BB" stroke="#B1B4EA" stroke-width="0.75" stroke-miterlimit="10"/>
<path d="M141.789 37.6825C141.789 37.6825 138.117 38.3386 135.447 35.3864C135.447 35.3864 133.443 32.4154 135.447 31.4407C135.447 31.4407 137.45 31.45 135.781 35.3864C134.113 39.3227 128.437 38.6666 126.769 36.6985C126.769 36.6985 125.1 35.7144 124.765 33.7462C124.765 33.7462 124.43 32.4341 125.432 31.7781C126.434 31.122 127.101 33.4182 126.769 33.7462C126.434 34.0743 126.769 36.6985 122.762 37.0265C118.755 37.3545 119.09 35.0583 119.09 35.7144" stroke="white" stroke-width="0.75" stroke-miterlimit="10"/>
<path d="M150.506 84.2644L150.794 84.3979C151.961 84.9391 153.361 84.426 153.902 83.2568L164.113 61.1807C164.653 60.0116 164.141 58.6104 162.973 58.0692L162.685 57.9356C161.517 57.3944 160.118 57.9075 159.577 59.0767L149.366 81.1528C148.825 82.3243 149.338 83.7231 150.506 84.2644Z" fill="#DE744D"/>
<path d="M83.1247 31.7504C82.8219 31.6621 82.7408 31.0255 82.9436 30.3285C83.1463 29.6316 83.5562 29.1381 83.859 29.2264C84.1618 29.3147 84.2429 29.9513 84.0401 30.6482C83.8374 31.3452 83.4275 31.8387 83.1247 31.7504Z" fill="#1A1A1A" stroke="#1A1A1A" stroke-width="0.25" stroke-miterlimit="10"/>
<path d="M95.3318 32.5961C95.029 32.5078 94.9478 31.8712 95.1506 31.1742C95.3533 30.4773 95.7632 29.9838 96.066 30.0721C96.3688 30.1604 96.4499 30.7969 96.2471 31.4939C96.0444 32.1909 95.6346 32.6844 95.3318 32.5961Z" fill="#1A1A1A" stroke="#1A1A1A" stroke-width="0.25" stroke-miterlimit="10"/>
<path d="M161.046 63.5212C155.362 61.4378 153.383 52.5574 156.627 43.6863C159.871 34.8152 167.109 29.3127 172.793 31.3961C178.478 33.4795 180.456 42.3599 177.212 51.231C173.968 60.1021 166.73 65.6046 161.046 63.5212Z" fill="#DE744D"/>
<path d="M162.095 59.8571C157.882 58.3129 156.521 51.4429 159.055 44.5125C161.589 37.5821 167.059 33.2157 171.273 34.7599C175.486 36.3041 176.847 43.1741 174.313 50.1045C171.778 57.0349 166.308 61.4013 162.095 59.8571Z" fill="#D8DBE6"/>
<path d="M159.829 67.7016C159.459 67.4134 158.13 64.5947 161.076 63.9269C164.023 63.2592 168.645 63.9597 170.576 65.4335C172.507 66.9073 173.466 69.4401 170.669 71.4106C170.669 71.4106 172.153 78.5053 166.515 79.1497C160.877 79.7963 154.867 77.1839 154.497 76.8957C154.497 76.8957 150.697 73.3155 156.316 72.3689C156.316 72.3689 151.574 68.9785 159.166 67.7765L159.829 67.7016Z" fill="#D99379"/>
<path d="M167.403 34.1321C168.763 33.6377 170.123 33.5768 171.372 34.0337C175.585 35.5777 176.947 42.4475 174.412 49.3782C171.878 56.3089 166.408 60.674 162.196 59.1299C160.866 58.6426 159.82 57.6257 159.092 56.2433L165.526 53.9401L167.403 34.1321Z" fill="#A97E6E"/>
<path d="M167.315 34.1226C167.315 34.1226 164.305 37.4918 163.699 40.2637C163.699 40.2637 161.467 40.1278 161.034 42.1662C160.589 44.2586 162.705 44.4999 162.705 44.4999C161.701 49.5538 163.709 52.3725 163.709 52.3725C161.53 55.3528 158.981 56.3744 158.981 56.3744L166.889 55.2521L171.053 51.1916L173.236 45.7581L173.229 38.6938L167.315 34.1226Z" fill="#A97E6E"/>
<path d="M166.051 47.5883C166.051 47.5883 164.815 47.8671 164.551 46.8057C164.286 45.7443 165.599 45.3156 165.599 45.3156C165.599 45.3156 165.864 45.332 166.493 44.1206" stroke="#261E0F" stroke-miterlimit="10" stroke-linecap="round"/>
<path d="M170.857 45.0048C170.685 44.9704 170.609 44.6215 170.688 44.2256C170.767 43.8297 170.971 43.5367 171.143 43.5712C171.315 43.6056 171.391 43.9545 171.312 44.3504C171.233 44.7463 171.029 45.0393 170.857 45.0048Z" fill="#1A1A1A" stroke="#1A1A1A" stroke-width="0.25" stroke-miterlimit="10"/>
<path d="M164.618 42.2805C164.445 42.246 164.37 41.8971 164.449 41.5012C164.528 41.1053 164.731 40.8123 164.904 40.8468C165.076 40.8812 165.152 41.2301 165.073 41.626C164.994 42.0219 164.79 42.3149 164.618 42.2805Z" fill="#1A1A1A" stroke="#1A1A1A" stroke-width="0.25" stroke-miterlimit="10"/>
<path opacity="0.59" d="M173.194 39.5891C173.304 39.5212 173.339 39.3782 173.274 39.2681L171.221 35.8824C171.153 35.7723 171.011 35.7372 170.901 35.8028C170.791 35.8707 170.755 36.0136 170.821 36.1238L172.873 39.5095C172.941 39.6196 173.084 39.6547 173.194 39.5891Z" fill="white"/>
<path opacity="0.6" d="M173.864 43.502C173.974 43.4341 174.009 43.2912 173.944 43.1811L169.165 35.2967C169.097 35.1866 168.954 35.1515 168.844 35.2171C168.734 35.285 168.699 35.4279 168.764 35.5381L173.543 43.4224C173.609 43.5325 173.754 43.57 173.864 43.502Z" fill="white"/>
<path opacity="0.6" d="M160.337 53.8138C160.227 53.8817 160.192 54.0246 160.258 54.1348L162.31 57.5204C162.378 57.6306 162.521 57.6657 162.631 57.6001C162.741 57.5321 162.776 57.3892 162.71 57.2791L160.658 53.8934C160.592 53.7833 160.447 53.7481 160.337 53.8138Z" fill="white"/>
<path opacity="0.6" d="M159.669 49.9007C159.559 49.9687 159.524 50.1116 159.59 50.2217L164.369 58.106C164.436 58.2162 164.579 58.2513 164.689 58.1857C164.799 58.1177 164.834 57.9748 164.769 57.8647L159.99 49.9804C159.924 49.8703 159.779 49.8328 159.669 49.9007Z" fill="white"/>
<path d="M94.2428 6.07489C84.4366 -2.31788 74.1155 -0.0170157 76.69 1.38881C81.1811 3.84197 74.9557 2.32837 69.4348 4.66906C65.3555 6.39823 60.6584 12.1996 61.2435 14.0412C62.8817 19.1959 58.9031 20.1331 62.4137 30.2082C63.7594 34.0719 64.52 34.4257 65.4561 36.0658C68.2014 40.8737 68.4986 44.735 68.4986 44.735C68.7608 43.8236 68.3114 34.7256 68.3114 34.7256C63.4434 34.5569 63.3053 30.7893 63.3053 30.7893C63.2585 25.9814 68.6461 26.1969 68.6461 26.1969C70.392 26.0634 69.4956 32.0873 70.8414 31.8483C72.2386 31.6 72.372 31.6632 72.2456 30.4425C70.3733 12.4011 82.3092 22.2419 91.2026 14.2755C94.8443 11.014 97.0536 18.7273 97.0536 18.7273C97.0536 18.7273 98.6006 22.1294 98.4578 27.1622C98.4204 28.479 97.531 31.9069 97.5217 32.7855C97.51 33.8961 98.8838 29.3389 98.6895 30.1332C98.6895 30.1332 103.139 18.493 100.798 16.15C98.6193 13.9709 100.328 5.84058 94.2428 6.07489Z" fill="#40271E"/>
</svg>
